# Blender v3.2.0 OBJ File: 'SnowmanBase.blend'
# www.blender.org
mtllib AstronautVisor.mtl
o AstronautVisor_Sphere.018
v -0.093490 1.530399 0.370184
v -0.115819 1.032638 0.417085
v -0.193790 1.520886 0.335643
v -0.231530 1.047258 0.372541
v -0.280329 1.504962 0.291399
v -0.323082 1.073883 0.314970
v -0.439587 1.390998 0.055420
v -0.452569 1.196689 0.054582
v -0.469307 1.289014 -0.002231
v -0.458889 1.345209 0.009469
v -0.473585 1.255899 0.015013
v -0.000000 1.027913 0.431934
v -0.000000 1.531543 0.382045
v -0.378677 1.449343 0.183566
v -0.399726 1.124769 0.193758
v -0.098661 1.556639 0.390491
v -0.123242 1.011037 0.442434
v -0.207915 1.543669 0.355885
v -0.248447 1.029565 0.396099
v -0.301601 1.522433 0.311120
v -0.346855 1.062280 0.336188
v -0.469340 1.400415 0.066971
v -0.483766 1.190660 0.064414
v -0.500824 1.293188 0.007453
v -0.389825 1.286591 0.351374
v -0.490157 1.350937 0.019158
v -0.213932 1.510934 0.404092
v -0.105769 1.506928 0.452119
v -0.346064 1.403352 0.353079
v -0.505168 1.257241 0.025351
v -0.249923 1.074942 0.438812
v -0.127218 1.066746 0.490947
v -0.370790 1.164611 0.350253
v -0.000000 1.006605 0.458722
v -0.000000 1.557354 0.403633
v -0.000000 1.063304 0.505973
v -0.000000 1.504904 0.466155
v -0.404858 1.463389 0.200421
v -0.427280 1.115940 0.212608
v -0.463534 1.288331 0.184808
v -0.441764 1.378863 0.188283
v -0.458695 1.208047 0.197062
v 0.093490 1.530399 0.370184
v 0.115819 1.032638 0.417085
v 0.193790 1.520886 0.335643
v 0.231529 1.047258 0.372541
v 0.280329 1.504962 0.291399
v 0.323082 1.073883 0.314970
v 0.439587 1.390998 0.055420
v 0.452569 1.196689 0.054582
v 0.469307 1.289014 -0.002231
v 0.458889 1.345209 0.009469
v 0.473585 1.255899 0.015013
v 0.378677 1.449343 0.183566
v 0.399726 1.124769 0.193758
v 0.098661 1.556639 0.390491
v 0.123242 1.011037 0.442434
v 0.207915 1.543669 0.355885
v 0.248447 1.029565 0.396099
v 0.301601 1.522433 0.311120
v 0.346855 1.062280 0.336188
v 0.469340 1.400415 0.066971
v 0.483766 1.190660 0.064414
v 0.500824 1.293188 0.007453
v 0.389825 1.286591 0.351374
v 0.490157 1.350937 0.019158
v 0.213932 1.510934 0.404092
v 0.105769 1.506928 0.452119
v 0.346064 1.403352 0.353079
v 0.505168 1.257241 0.025351
v 0.249923 1.074942 0.438812
v 0.127218 1.066746 0.490947
v 0.370789 1.164611 0.350253
v 0.404858 1.463389 0.200421
v 0.427280 1.115940 0.212608
v 0.463534 1.288331 0.184808
v 0.441764 1.378863 0.188283
v 0.458695 1.208047 0.197062
vt 0.000000 0.000000
vt 0.000000 0.000000
vt 0.000000 0.000000
vt 0.000000 0.000000
vt 0.000000 0.000000
vt 0.000000 0.000000
vt 0.000000 0.000000
vt 0.000000 0.000000
vt 0.000000 0.000000
vt 0.000000 0.000000
vt 0.000000 0.000000
vt 0.000000 0.000000
vt 0.000000 0.000000
vt 0.000000 0.000000
vt 0.000000 0.000000
vt 0.000000 0.000000
vt 0.000000 0.000000
vt 0.000000 0.000000
vt 0.000000 0.000000
vt 0.000000 0.000000
vt 0.000000 0.000000
vt 0.000000 0.000000
vt 0.000000 0.000000
vt 0.000000 0.000000
vt 0.000000 0.000000
vt 0.000000 0.000000
vt 0.000000 0.000000
vt 0.000000 0.000000
vt 0.000000 0.000000
vt 0.000000 0.000000
vt 0.000000 0.000000
vt 0.000000 0.000000
vt 0.000000 0.000000
vt 0.000000 0.000000
vt 0.000000 0.000000
vt 0.000000 0.000000
vt 0.000000 0.000000
vt 0.000000 0.000000
vt 0.000000 0.000000
vt 0.000000 0.000000
vt 0.000000 0.000000
vt 0.000000 0.000000
vt 0.000000 0.000000
vt 0.000000 0.000000
vt 0.000000 0.000000
vt 0.000000 0.000000
vt 0.000000 0.000000
vt 0.000000 0.000000
vt 0.000000 0.000000
vt 0.000000 0.000000
vt 0.000000 0.000000
vt 0.000000 0.000000
vt 0.000000 0.000000
vt 0.000000 0.000000
vt 0.000000 0.000000
vt 0.000000 0.000000
vt 0.000000 0.000000
vt 0.000000 0.000000
vt 0.000000 0.000000
vt 0.000000 0.000000
vt 0.000000 0.000000
vt 0.000000 0.000000
vt 0.000000 0.000000
vt 0.000000 0.000000
vt 0.000000 0.000000
vt 0.000000 0.000000
vt 0.000000 0.000000
vt 0.000000 0.000000
vt 0.000000 0.000000
vt 0.000000 0.000000
vt 0.000000 0.000000
vt 0.000000 0.000000
vt 0.000000 0.000000
vt 0.000000 0.000000
vt 0.000000 0.000000
vt 0.000000 0.000000
vt 0.000000 0.000000
vt 0.000000 0.000000
vn -0.4908 -0.2630 0.8306
vn -0.7324 -0.1208 0.6701
vn -0.5392 -0.8305 0.1396
vn -0.3246 -0.9377 0.1243
vn -0.9331 -0.1381 0.3321
vn -0.6206 -0.7838 -0.0229
vn -0.1144 -0.9859 0.1225
vn -0.2615 -0.2930 0.9197
vn -0.8985 0.2774 0.3401
vn -0.9380 0.1097 0.3288
vn -0.7357 0.0933 0.6708
vn -0.6777 0.2703 0.6839
vn -0.1999 0.9793 -0.0317
vn -0.4170 0.9085 0.0287
vn -0.4387 0.4689 0.7666
vn -0.5411 0.8399 -0.0416
vn -0.2273 0.4625 0.8570
vn -0.0326 0.9972 -0.0671
vn 0.0000 -0.9896 0.1441
vn 0.0000 -0.3014 0.9535
vn 0.0000 0.4529 0.8916
vn -0.0000 0.9992 -0.0403
vn -0.8141 0.0052 -0.5807
vn -0.8583 -0.3365 -0.3873
vn -0.5910 0.7693 -0.2428
vn -0.7202 0.5036 -0.4773
vn -0.6512 -0.6848 -0.3271
vn 0.0819 -0.8292 -0.5529
vn 0.0824 -0.7886 -0.6093
vn 0.1319 0.6493 -0.7490
vn 0.1618 0.7137 -0.6815
vn 0.1401 0.7947 -0.5907
vn 0.0448 -0.8850 -0.4634
vn -0.2633 -0.4851 -0.8339
vn -0.1110 -0.7514 -0.6504
vn 0.1277 0.8532 -0.5057
vn 0.0259 0.8005 -0.5987
vn 0.0186 -0.8991 -0.4374
vn -0.1685 0.4886 -0.8561
vn -0.2949 -0.0715 -0.9529
vn 0.0000 -0.7758 -0.6310
vn -0.0000 0.6327 -0.7744
vn 0.4908 -0.2630 0.8306
vn 0.3246 -0.9377 0.1243
vn 0.5392 -0.8305 0.1396
vn 0.7324 -0.1208 0.6701
vn 0.9331 -0.1381 0.3321
vn 0.6206 -0.7838 -0.0229
vn 0.2615 -0.2930 0.9197
vn 0.1144 -0.9859 0.1225
vn 0.8985 0.2774 0.3401
vn 0.6777 0.2703 0.6839
vn 0.7357 0.0933 0.6708
vn 0.9380 0.1097 0.3288
vn 0.1999 0.9793 -0.0317
vn 0.4387 0.4689 0.7666
vn 0.4170 0.9085 0.0287
vn 0.5411 0.8399 -0.0416
vn 0.0326 0.9972 -0.0671
vn 0.2273 0.4625 0.8570
vn 0.8141 0.0052 -0.5807
vn 0.8583 -0.3366 -0.3873
vn 0.5910 0.7693 -0.2428
vn 0.7202 0.5036 -0.4773
vn 0.6512 -0.6848 -0.3271
vn -0.0819 -0.8292 -0.5529
vn -0.0824 -0.7886 -0.6093
vn -0.1319 0.6493 -0.7490
vn -0.1618 0.7137 -0.6815
vn -0.1401 0.7947 -0.5907
vn -0.0448 -0.8850 -0.4634
vn 0.2633 -0.4851 -0.8339
vn 0.1110 -0.7514 -0.6504
vn -0.1277 0.8532 -0.5057
vn -0.0259 0.8005 -0.5987
vn -0.0186 -0.8991 -0.4374
vn 0.1685 0.4886 -0.8561
vn 0.2949 -0.0715 -0.9529
usemtl HelmetMask
s 1
f 31/1/1 33/2/2 21/3/3 19/4/4
f 42/5/5 39/6/6 21/3/3 33/2/2
f 31/1/1 19/4/4 17/7/7 32/8/8
f 41/9/9 40/10/10 25/11/11 29/12/12
f 18/13/13 20/14/14 29/12/12 27/15/15
f 38/16/16 41/9/9 29/12/12 20/14/14
f 18/13/13 27/15/15 28/17/17 16/18/18
f 40/10/10 42/5/5 33/2/2 25/11/11
f 17/7/7 34/19/19 36/20/20 32/8/8
f 32/8/8 36/20/20 37/21/21 28/17/17
f 27/15/15 31/1/1 32/8/8 28/17/17
f 28/17/17 37/21/21 35/22/22 16/18/18
f 24/23/23 30/24/24 42/5/5 40/10/10
f 22/25/25 26/26/26 41/9/9 38/16/16
f 26/26/26 24/23/23 40/10/10 41/9/9
f 30/24/24 23/27/27 39/6/6 42/5/5
f 4/28/28 2/29/29 17/7/7 19/4/4
f 1/30/30 3/31/31 18/13/13 16/18/18
f 3/31/31 5/32/32 20/14/14 18/13/13
f 6/33/33 4/28/28 19/4/4 21/3/3
f 11/34/34 8/35/35 23/27/27 30/24/24
f 14/36/36 7/37/37 22/25/25 38/16/16
f 8/35/35 15/38/38 39/6/6 23/27/27
f 10/39/39 9/40/40 24/23/23 26/26/26
f 7/37/37 10/39/39 26/26/26 22/25/25
f 9/40/40 11/34/34 30/24/24 24/23/23
f 2/29/29 12/41/41 34/19/19 17/7/7
f 13/42/42 1/30/30 16/18/18 35/22/22
f 5/32/32 14/36/36 38/16/16 20/14/14
f 15/38/38 6/33/33 21/3/3 39/6/6
f 25/11/11 33/2/2 31/1/1 27/15/15 29/12/12
f 71/43/43 59/44/44 61/45/45 73/46/46
f 78/47/47 73/46/46 61/45/45 75/48/48
f 71/43/43 72/49/49 57/50/50 59/44/44
f 77/51/51 69/52/52 65/53/53 76/54/54
f 58/55/55 67/56/56 69/52/52 60/57/57
f 74/58/58 60/57/57 69/52/52 77/51/51
f 58/55/55 56/59/59 68/60/60 67/56/56
f 76/54/54 65/53/53 73/46/46 78/47/47
f 57/50/50 72/49/49 36/20/20 34/19/19
f 72/49/49 68/60/60 37/21/21 36/20/20
f 67/56/56 68/60/60 72/49/49 71/43/43
f 68/60/60 56/59/59 35/22/22 37/21/21
f 64/61/61 76/54/54 78/47/47 70/62/62
f 62/63/63 74/58/58 77/51/51 66/64/64
f 66/64/64 77/51/51 76/54/54 64/61/61
f 70/62/62 78/47/47 75/48/48 63/65/65
f 46/66/66 59/44/44 57/50/50 44/67/67
f 43/68/68 56/59/59 58/55/55 45/69/69
f 45/69/69 58/55/55 60/57/57 47/70/70
f 48/71/71 61/45/45 59/44/44 46/66/66
f 53/72/72 70/62/62 63/65/65 50/73/73
f 54/74/74 74/58/58 62/63/63 49/75/75
f 50/73/73 63/65/65 75/48/48 55/76/76
f 52/77/77 66/64/64 64/61/61 51/78/78
f 49/75/75 62/63/63 66/64/64 52/77/77
f 51/78/78 64/61/61 70/62/62 53/72/72
f 44/67/67 57/50/50 34/19/19 12/41/41
f 13/42/42 35/22/22 56/59/59 43/68/68
f 47/70/70 60/57/57 74/58/58 54/74/74
f 55/76/76 75/48/48 61/45/45 48/71/71
f 65/53/53 69/52/52 67/56/56 71/43/43 73/46/46
