# Blender v3.2.0 OBJ File: 'SnowmanBase.blend'
# www.blender.org
mtllib FishingHat.mtl
o Circle_Circle.006
v 0.000000 0.985381 -0.574804
v 0.000000 1.587007 0.464913
v 0.225628 1.564109 0.425341
v 0.416906 1.498901 0.312650
v 0.544714 1.401310 0.143996
v 0.589594 1.286194 -0.054946
v 0.544714 1.171078 -0.253887
v 0.416906 1.073487 -0.422541
v 0.225628 1.008279 -0.535233
v 0.000000 1.138051 -0.434060
v -0.000000 1.541062 0.262413
v 0.151141 1.525723 0.235905
v 0.279272 1.482042 0.160417
v 0.364886 1.416669 0.047441
v 0.394950 1.339557 -0.085824
v 0.364886 1.262444 -0.219088
v 0.279272 1.197071 -0.332064
v 0.151141 1.153390 -0.407552
v 0.000000 1.052076 -0.613397
v -0.000000 1.653702 0.426320
v 0.225628 1.630804 0.386748
v 0.416906 1.565596 0.274057
v 0.544714 1.468005 0.105403
v 0.589594 1.352889 -0.093538
v 0.544714 1.237773 -0.292480
v 0.416906 1.140182 -0.461134
v 0.225628 1.074974 -0.573825
v 0.000000 1.192740 -0.456192
v -0.000000 1.587502 0.226027
v 0.148047 1.572477 0.200062
v 0.273556 1.529691 0.126118
v 0.357418 1.465655 0.015455
v 0.386867 1.390121 -0.115082
v 0.357418 1.314587 -0.245619
v 0.273556 1.250552 -0.356283
v 0.148047 1.207765 -0.430227
v -0.000000 1.362220 -0.495761
v -0.000000 1.706263 0.098808
v 0.129027 1.693169 0.076178
v 0.238410 1.655879 0.011735
v 0.311498 1.600071 -0.084711
v 0.337163 1.534241 -0.198477
v 0.311498 1.468411 -0.312243
v 0.238410 1.412604 -0.408689
v 0.129027 1.375314 -0.473132
v -0.000000 1.513216 -0.424675
v -0.000000 1.719876 -0.067529
v 0.077504 1.712011 -0.081122
v 0.143208 1.689612 -0.119832
v 0.187110 1.656089 -0.177765
v 0.202527 1.616546 -0.246102
v 0.187110 1.577004 -0.314439
v 0.143208 1.543481 -0.372372
v 0.077504 1.521082 -0.411082
v 0.436845 1.287498 0.058102
v 0.444261 1.361571 -0.040790
v 0.436845 1.256330 0.031959
v 0.444261 1.330402 -0.066933
v 0.469543 1.282082 0.065333
v 0.477515 1.361571 -0.040790
v 0.469543 1.250914 0.039190
v 0.477515 1.330402 -0.066933
v 0.410966 1.165793 0.152832
v 0.410966 1.196962 0.178974
v 0.440596 1.152290 0.170860
v 0.440596 1.183458 0.197003
v 0.364211 1.088780 0.255650
v 0.364211 1.119948 0.281792
v 0.391324 1.071558 0.278643
v 0.391324 1.102726 0.304786
v 0.278994 1.031892 0.331600
v 0.278994 1.063060 0.357742
v 0.298557 1.007837 0.363715
v 0.298557 1.039005 0.389858
v 0.193014 1.006491 0.365511
v 0.193014 1.037660 0.391654
v 0.197134 0.976973 0.404920
v 0.197134 1.008141 0.431063
v 0.000000 0.994130 0.382014
v 0.000000 1.025299 0.408156
v 0.000000 0.964612 0.421423
v 0.000000 0.995780 0.447565
v -0.225628 1.564109 0.425341
v -0.416906 1.498901 0.312650
v -0.544714 1.401310 0.143996
v -0.589594 1.286194 -0.054946
v -0.544714 1.171078 -0.253887
v -0.416906 1.073487 -0.422541
v -0.225628 1.008279 -0.535233
v -0.151141 1.525723 0.235905
v -0.279272 1.482042 0.160417
v -0.364886 1.416669 0.047441
v -0.394950 1.339557 -0.085824
v -0.364886 1.262444 -0.219088
v -0.279272 1.197071 -0.332064
v -0.151141 1.153390 -0.407552
v -0.225628 1.630804 0.386748
v -0.416906 1.565596 0.274057
v -0.544714 1.468005 0.105403
v -0.589594 1.352889 -0.093538
v -0.544714 1.237773 -0.292480
v -0.416906 1.140182 -0.461134
v -0.225628 1.074974 -0.573825
v -0.148047 1.572477 0.200062
v -0.273556 1.529691 0.126118
v -0.357418 1.465655 0.015455
v -0.386867 1.390121 -0.115082
v -0.357418 1.314587 -0.245619
v -0.273556 1.250552 -0.356283
v -0.148047 1.207765 -0.430227
v -0.129027 1.693169 0.076178
v -0.238410 1.655879 0.011735
v -0.311498 1.600071 -0.084711
v -0.337163 1.534241 -0.198477
v -0.311498 1.468411 -0.312243
v -0.238410 1.412604 -0.408689
v -0.129027 1.375314 -0.473132
v -0.077504 1.712011 -0.081122
v -0.143208 1.689612 -0.119832
v -0.187110 1.656089 -0.177765
v -0.202527 1.616546 -0.246102
v -0.187110 1.577004 -0.314439
v -0.143208 1.543481 -0.372372
v -0.077504 1.521082 -0.411082
v -0.436845 1.287498 0.058102
v -0.444261 1.361571 -0.040790
v -0.436845 1.256330 0.031959
v -0.444261 1.330402 -0.066933
v -0.469543 1.282082 0.065333
v -0.477515 1.361571 -0.040790
v -0.469543 1.250914 0.039190
v -0.477515 1.330402 -0.066933
v -0.410966 1.165793 0.152832
v -0.410966 1.196962 0.178974
v -0.440596 1.152290 0.170860
v -0.440596 1.183458 0.197003
v -0.364211 1.088780 0.255650
v -0.364211 1.119948 0.281792
v -0.391324 1.071558 0.278643
v -0.391324 1.102726 0.304786
v -0.278994 1.031892 0.331600
v -0.278994 1.063060 0.357742
v -0.298557 1.007837 0.363715
v -0.298557 1.039005 0.389858
v -0.193014 1.006491 0.365511
v -0.193014 1.037660 0.391654
v -0.197134 0.976973 0.404920
v -0.197134 1.008141 0.431063
vt 0.359070 0.220975
vt 0.421745 0.307255
vt 0.361001 0.359815
vt 0.277182 0.277288
vt 0.440704 0.177736
vt 0.488412 0.264287
vt 0.521681 0.145554
vt 0.557881 0.230163
vt 0.600348 0.122523
vt 0.628939 0.202667
vt 0.675846 0.090905
vt 0.702810 0.179588
vt 0.757846 0.063004
vt 0.782865 0.159949
vt 0.844734 0.037144
vt 0.873318 0.143232
vt 0.934312 0.005839
vt 0.991222 0.124824
vt 0.542024 0.356496
vt 0.599915 0.325797
vt 0.630529 0.394146
vt 0.580720 0.419918
vt 0.488473 0.393847
vt 0.440879 0.438461
vt 0.380337 0.378853
vt 0.438702 0.328679
vt 0.502132 0.287132
vt 0.568939 0.253752
vt 0.661697 0.300116
vt 0.637994 0.227293
vt 0.728980 0.286021
vt 0.710246 0.205677
vt 0.800250 0.278151
vt 0.789140 0.188868
vt 0.877886 0.279526
vt 0.878654 0.176841
vt 0.961920 0.294246
vt 0.995293 0.169532
vt 0.683618 0.375501
vt 0.740007 0.363851
vt 0.800155 0.360948
vt 0.864228 0.368429
vt 0.933657 0.390677
vt 0.534596 0.451833
vt 0.492419 0.489206
vt 0.792588 0.447825
vt 0.747557 0.446917
vt 0.837718 0.456900
vt 0.880800 0.476043
vt 0.588633 0.518686
vt 0.555729 0.551541
vt 0.624744 0.491076
vt 0.663494 0.468973
vt 0.704121 0.452919
vt 0.780548 0.858430
vt 0.825687 0.831296
vt 0.817671 0.816050
vt 0.772690 0.842954
vt 0.880400 0.789855
vt 0.839674 0.821663
vt 0.847549 0.833097
vt 0.891249 0.798957
vt 0.795176 0.886062
vt 0.843274 0.856948
vt 0.833562 0.842730
vt 0.785698 0.871702
vt 0.940958 0.750048
vt 0.926196 0.745194
vt 0.724152 0.906049
vt 0.722774 0.890435
vt 0.668328 0.916361
vt 0.670177 0.932986
vt 0.715618 0.874527
vt 0.733156 0.920975
vt 0.678022 0.948618
vt 0.614931 0.953404
vt 0.620902 0.970270
vt 0.975591 0.701218
vt 0.959293 0.698698
vt 0.662502 0.899549
vt 0.568265 0.964357
vt 0.571829 0.982379
vt 0.609523 0.916433
vt 0.613449 0.934020
vt 0.990169 0.644152
vt 0.971740 0.646928
vt 0.569579 0.942087
vt 0.481093 0.949010
vt 0.480483 0.972446
vt 0.567348 0.924072
vt 0.983853 0.597089
vt 0.965947 0.607332
vt 0.944259 0.524427
vt 0.927330 0.536087
vt 0.482455 0.991741
vt 0.479816 0.931431
vt 0.222148 0.360041
vt 0.309391 0.421367
vt 0.180182 0.442336
vt 0.267464 0.488694
vt 0.149262 0.523804
vt 0.234423 0.558685
vt 0.127456 0.602819
vt 0.208035 0.630161
vt 0.097015 0.678799
vt 0.186106 0.704382
vt 0.070390 0.761223
vt 0.167713 0.784733
vt 0.045883 0.848502
vt 0.152403 0.875435
vt 0.015974 0.938555
vt 0.135829 0.993610
vt 0.360494 0.540867
vt 0.424510 0.578573
vt 0.399515 0.628777
vt 0.330699 0.599228
vt 0.397009 0.486742
vt 0.331076 0.437990
vt 0.290520 0.502058
vt 0.258181 0.569375
vt 0.305981 0.661402
vt 0.232798 0.638833
vt 0.292933 0.728895
vt 0.212307 0.711412
vt 0.286170 0.800279
vt 0.196726 0.790558
vt 0.288752 0.877884
vt 0.186091 0.880247
vt 0.304776 0.961679
vt 0.180595 0.996986
vt 0.381697 0.682149
vt 0.370924 0.738712
vt 0.368956 0.798898
vt 0.377431 0.862846
vt 0.400755 0.931922
vt 0.455705 0.531959
vt 0.454098 0.744971
vt 0.455705 0.789982
vt 0.465480 0.834966
vt 0.485290 0.877745
vt 0.523389 0.584951
vt 0.496343 0.621487
vt 0.474845 0.660575
vt 0.459424 0.701446
vt 0.780548 0.858430
vt 0.772691 0.842954
vt 0.817671 0.816051
vt 0.825687 0.831297
vt 0.880400 0.789855
vt 0.891249 0.798957
vt 0.847549 0.833097
vt 0.839674 0.821663
vt 0.795176 0.886062
vt 0.785699 0.871702
vt 0.833562 0.842730
vt 0.843274 0.856948
vt 0.926196 0.745195
vt 0.940957 0.750048
vt 0.724153 0.906049
vt 0.670177 0.932986
vt 0.668328 0.916361
vt 0.722774 0.890435
vt 0.715618 0.874527
vt 0.733156 0.920975
vt 0.678022 0.948618
vt 0.620902 0.970270
vt 0.614931 0.953404
vt 0.959293 0.698699
vt 0.975590 0.701218
vt 0.662502 0.899549
vt 0.571829 0.982379
vt 0.568265 0.964357
vt 0.613449 0.934020
vt 0.609523 0.916433
vt 0.971740 0.646928
vt 0.990168 0.644153
vt 0.569579 0.942087
vt 0.567348 0.924072
vt 0.965947 0.607333
vt 0.983852 0.597090
vt 0.659923 0.837933
vt 0.600194 0.813188
vt 0.554479 0.767007
vt 0.529738 0.706421
vt 0.529738 0.640653
vt 0.554479 0.579716
vt 0.600194 0.532887
vt 0.659923 0.507295
vt 0.724573 0.506837
vt 0.784302 0.531582
vt 0.830017 0.577763
vt 0.854758 0.638349
vt 0.854758 0.704117
vt 0.830017 0.765054
vt 0.784302 0.811883
vt 0.724573 0.837475
vn -0.1161 -0.9636 0.2409
vn 0.2532 -0.3563 0.8994
vn -0.0000 -0.3300 0.9440
vn 0.0000 -0.9752 0.2213
vn -0.2141 -0.9307 0.2966
vn 0.4638 -0.4297 0.7747
vn -0.2792 -0.8820 0.3797
vn 0.6009 -0.5363 0.5927
vn -0.3020 -0.8251 0.4775
vn 0.6482 -0.6591 0.3814
vn -0.2792 -0.7687 0.5755
vn 0.6009 -0.7811 0.1697
vn -0.2141 -0.7210 0.6591
vn 0.4638 -0.8858 -0.0135
vn -0.1161 -0.6890 0.7154
vn 0.2532 -0.9573 -0.1393
vn 0.0000 -0.6778 0.7352
vn 0.0000 -0.9829 -0.1843
vn 0.4555 0.8902 0.0021
vn 0.5931 0.7857 -0.1756
vn 0.7635 0.6456 -0.0143
vn 0.5871 0.7804 0.2153
vn 0.2473 0.9612 0.1219
vn 0.0000 0.9864 0.1642
vn -0.0000 0.9172 0.3983
vn 0.3121 0.8857 0.3438
vn 0.5733 0.7969 0.1904
vn 0.7448 0.6664 -0.0350
vn 0.6411 0.6642 -0.3844
vn 0.8043 0.5144 -0.2976
vn 0.5931 0.5438 -0.5937
vn 0.7448 0.3624 -0.5603
vn 0.4555 0.4418 -0.7729
vn 0.5733 0.2320 -0.7858
vn 0.2473 0.3733 -0.8941
vn 0.3121 0.1433 -0.9392
vn -0.0000 0.3492 -0.9371
vn 0.0000 0.1117 -0.9937
vn 0.8249 0.4892 -0.2831
vn 0.7635 0.3341 -0.5526
vn 0.5871 0.2022 -0.7839
vn 0.3192 0.1133 -0.9409
vn 0.0000 0.0819 -0.9966
vn 0.3192 0.8722 0.3706
vn 0.0000 0.9049 0.4257
vn 0.2387 0.6988 -0.6743
vn 0.3106 0.7524 -0.5809
vn 0.1297 0.6627 -0.7376
vn 0.0000 0.6499 -0.7600
vn 0.1297 0.9697 -0.2070
vn -0.0000 0.9828 -0.1848
vn 0.2387 0.9328 -0.2699
vn 0.3106 0.8786 -0.3629
vn 0.3356 0.8153 -0.4718
vn -0.6873 0.6261 0.3683
vn -0.5607 0.8215 -0.1039
vn -0.5558 -0.0872 -0.8267
vn -0.6921 -0.5272 -0.4930
vn 0.5928 -0.1012 -0.7990
vn 0.7126 -0.6071 -0.3518
vn 0.5994 0.7962 -0.0823
vn 0.7167 0.5026 0.4836
vn 0.6969 -0.6655 -0.2673
vn -0.6682 -0.4737 -0.5736
vn 0.7053 0.4313 0.5626
vn -0.6573 0.6923 0.2979
vn -0.5537 0.8114 0.1873
vn 0.6462 0.2945 0.7041
vn 0.6344 -0.7651 -0.1102
vn 0.4642 0.1601 0.8712
vn 0.4514 -0.8909 0.0510
vn -0.5756 -0.3906 -0.7184
vn 0.2141 0.0814 0.9734
vn 0.2068 -0.9676 0.1448
vn -0.4098 -0.2691 -0.8716
vn -0.3859 0.9213 0.0485
vn -0.1780 0.9834 -0.0357
vn 0.0000 0.9968 -0.0795
vn 0.0000 0.0834 0.9965
vn -0.1911 -0.1924 -0.9625
vn 0.0000 -0.9893 0.1461
vn 0.0000 -0.1501 -0.9887
vn 0.1161 -0.9636 0.2409
vn -0.2532 -0.3563 0.8994
vn 0.2141 -0.9307 0.2966
vn -0.4638 -0.4297 0.7747
vn 0.2792 -0.8820 0.3797
vn -0.6009 -0.5363 0.5927
vn 0.3020 -0.8251 0.4775
vn -0.6482 -0.6591 0.3814
vn 0.2792 -0.7687 0.5755
vn -0.6009 -0.7811 0.1697
vn 0.2141 -0.7210 0.6591
vn -0.4638 -0.8858 -0.0135
vn 0.1161 -0.6890 0.7154
vn -0.2532 -0.9573 -0.1393
vn -0.4555 0.8902 0.0021
vn -0.5871 0.7804 0.2153
vn -0.7635 0.6456 -0.0143
vn -0.5931 0.7857 -0.1756
vn -0.2473 0.9612 0.1219
vn -0.3121 0.8857 0.3438
vn -0.5733 0.7969 0.1904
vn -0.7448 0.6664 -0.0350
vn -0.6411 0.6642 -0.3844
vn -0.8043 0.5144 -0.2976
vn -0.5931 0.5438 -0.5937
vn -0.7448 0.3624 -0.5603
vn -0.4555 0.4418 -0.7729
vn -0.5733 0.2320 -0.7858
vn -0.2473 0.3733 -0.8941
vn -0.3121 0.1433 -0.9392
vn -0.8249 0.4892 -0.2831
vn -0.7635 0.3341 -0.5526
vn -0.5871 0.2022 -0.7839
vn -0.3192 0.1133 -0.9409
vn -0.3192 0.8722 0.3706
vn -0.3106 0.7524 -0.5809
vn -0.2387 0.6988 -0.6743
vn -0.1297 0.6627 -0.7376
vn -0.1297 0.9697 -0.2070
vn -0.2387 0.9328 -0.2699
vn -0.3106 0.8786 -0.3629
vn -0.3356 0.8153 -0.4718
vn 0.6873 0.6261 0.3683
vn 0.6921 -0.5272 -0.4930
vn 0.5558 -0.0872 -0.8267
vn 0.5607 0.8215 -0.1039
vn -0.7126 -0.6071 -0.3518
vn -0.5928 -0.1012 -0.7990
vn -0.7167 0.5026 0.4836
vn -0.5994 0.7962 -0.0823
vn 0.6682 -0.4737 -0.5736
vn -0.6969 -0.6655 -0.2673
vn -0.7053 0.4313 0.5626
vn -0.6462 0.2945 0.7041
vn 0.5537 0.8114 0.1873
vn 0.6573 0.6923 0.2979
vn -0.6344 -0.7651 -0.1102
vn -0.4514 -0.8909 0.0510
vn -0.4642 0.1601 0.8712
vn 0.5756 -0.3906 -0.7184
vn -0.2068 -0.9676 0.1448
vn -0.2141 0.0814 0.9734
vn 0.3859 0.9213 0.0485
vn 0.4098 -0.2691 -0.8716
vn 0.1780 0.9834 -0.0357
vn 0.1911 -0.1924 -0.9625
usemtl FishingHat
s 1
f 12/1/1 3/2/2 2/3/3 11/4/4
f 13/5/5 4/6/6 3/2/2 12/1/1
f 14/7/7 5/8/8 4/6/6 13/5/5
f 15/9/9 6/10/10 5/8/8 14/7/7
f 16/11/11 7/12/12 6/10/10 15/9/9
f 17/13/13 8/14/14 7/12/12 16/11/11
f 18/15/15 9/16/16 8/14/14 17/13/13
f 10/17/17 1/18/18 9/16/16 18/15/15
f 31/19/19 32/20/20 41/21/21 40/22/22
f 30/23/23 29/24/24 20/25/25 21/26/26
f 31/19/19 30/23/23 21/26/26 22/27/27
f 32/20/20 31/19/19 22/27/27 23/28/28
f 33/29/29 32/20/20 23/28/28 24/30/30
f 34/31/31 33/29/29 24/30/30 25/32/32
f 35/33/33 34/31/31 25/32/32 26/34/34
f 36/35/35 35/33/33 26/34/34 27/36/36
f 28/37/37 36/35/35 27/36/36 19/38/38
f 6/10/10 7/12/12 25/32/32 24/30/30
f 7/12/12 8/14/14 26/34/34 25/32/32
f 8/14/14 9/16/16 27/36/36 26/34/34
f 9/16/16 1/18/18 19/38/38 27/36/36
f 2/3/3 3/2/2 21/26/26 20/25/25
f 3/2/2 4/6/6 22/27/27 21/26/26
f 4/6/6 5/8/8 23/28/28 22/27/27
f 5/8/8 6/10/10 24/30/30 23/28/28
f 32/20/20 33/29/29 42/39/39 41/21/21
f 33/29/29 34/31/31 43/40/40 42/39/39
f 34/31/31 35/33/33 44/41/41 43/40/40
f 35/33/33 36/35/35 45/42/42 44/41/41
f 36/35/35 28/37/37 37/43/43 45/42/42
f 29/24/24 30/23/23 39/44/44 38/45/45
f 30/23/23 31/19/19 40/22/22 39/44/44
f 43/40/40 44/41/41 53/46/46 52/47/47
f 44/41/41 45/42/42 54/48/48 53/46/46
f 45/42/42 37/43/43 46/49/49 54/48/48
f 38/45/45 39/44/44 48/50/50 47/51/51
f 39/44/44 40/22/22 49/52/52 48/50/50
f 40/22/22 41/21/21 50/53/53 49/52/52
f 41/21/21 42/39/39 51/54/54 50/53/53
f 42/39/39 43/40/40 52/47/47 51/54/54
f 55/55/55 56/56/56 58/57/57 57/58/58
f 57/59/58 58/60/57 62/61/59 61/62/60
f 61/63/60 62/64/59 60/65/61 59/66/62
f 59/66/62 60/65/61 56/56/56 55/55/55
f 57/59/58 61/62/60 65/67/63 63/68/64
f 62/61/59 58/60/57 56/56/56 60/65/61
f 66/69/65 64/70/66 68/71/67 70/72/68
f 55/55/55 57/58/58 63/73/64 64/70/66
f 61/63/60 59/66/62 66/69/65 65/74/63
f 59/66/62 55/55/55 64/70/66 66/69/65
f 69/75/69 70/72/68 74/76/70 73/77/71
f 63/68/64 65/67/63 69/78/69 67/79/72
f 65/74/63 66/69/65 70/72/68 69/75/69
f 64/70/66 63/73/64 67/80/72 68/71/67
f 73/77/71 74/76/70 78/81/73 77/82/74
f 68/71/67 67/80/72 71/83/75 72/84/76
f 70/72/68 68/71/67 72/84/76 74/76/70
f 67/79/72 69/78/69 73/85/71 71/86/75
f 78/81/73 76/87/77 80/88/78 82/89/79
f 72/84/76 71/83/75 75/90/80 76/87/77
f 74/76/70 72/84/76 76/87/77 78/81/73
f 71/86/75 73/85/71 77/91/74 75/92/80
f 75/92/80 77/91/74 81/93/81 79/94/82
f 77/82/74 78/81/73 82/89/79 81/95/81
f 76/87/77 75/90/80 79/96/82 80/88/78
f 90/97/83 11/4/4 2/3/3 83/98/84
f 91/99/85 90/97/83 83/98/84 84/100/86
f 92/101/87 91/99/85 84/100/86 85/102/88
f 93/103/89 92/101/87 85/102/88 86/104/90
f 94/105/91 93/103/89 86/104/90 87/106/92
f 95/107/93 94/105/91 87/106/92 88/108/94
f 96/109/95 95/107/93 88/108/94 89/110/96
f 10/111/17 96/109/95 89/110/96 1/112/18
f 105/113/97 112/114/98 113/115/99 106/116/100
f 104/117/101 97/118/102 20/25/25 29/24/24
f 105/113/97 98/119/103 97/118/102 104/117/101
f 106/116/100 99/120/104 98/119/103 105/113/97
f 107/121/105 100/122/106 99/120/104 106/116/100
f 108/123/107 101/124/108 100/122/106 107/121/105
f 109/125/109 102/126/110 101/124/108 108/123/107
f 110/127/111 103/128/112 102/126/110 109/125/109
f 28/129/37 19/130/38 103/128/112 110/127/111
f 86/104/90 100/122/106 101/124/108 87/106/92
f 87/106/92 101/124/108 102/126/110 88/108/94
f 88/108/94 102/126/110 103/128/112 89/110/96
f 89/110/96 103/128/112 19/130/38 1/112/18
f 2/3/3 20/25/25 97/118/102 83/98/84
f 83/98/84 97/118/102 98/119/103 84/100/86
f 84/100/86 98/119/103 99/120/104 85/102/88
f 85/102/88 99/120/104 100/122/106 86/104/90
f 106/116/100 113/115/99 114/131/113 107/121/105
f 107/121/105 114/131/113 115/132/114 108/123/107
f 108/123/107 115/132/114 116/133/115 109/125/109
f 109/125/109 116/133/115 117/134/116 110/127/111
f 110/127/111 117/134/116 37/135/43 28/129/37
f 29/24/24 38/45/45 111/136/117 104/117/101
f 104/117/101 111/136/117 112/114/98 105/113/97
f 115/132/114 122/137/118 123/138/119 116/133/115
f 116/133/115 123/138/119 124/139/120 117/134/116
f 117/134/116 124/139/120 46/140/49 37/135/43
f 38/45/45 47/51/51 118/141/121 111/136/117
f 111/136/117 118/141/121 119/142/122 112/114/98
f 112/114/98 119/142/122 120/143/123 113/115/99
f 113/115/99 120/143/123 121/144/124 114/131/113
f 114/131/113 121/144/124 122/137/118 115/132/114
f 125/145/125 127/146/126 128/147/127 126/148/128
f 127/149/126 131/150/129 132/151/130 128/152/127
f 131/153/129 129/154/131 130/155/132 132/156/130
f 129/154/131 125/145/125 126/148/128 130/155/132
f 127/149/126 133/157/133 135/158/134 131/150/129
f 132/151/130 130/155/132 126/148/128 128/152/127
f 136/159/135 140/160/136 138/161/137 134/162/138
f 125/145/125 134/162/138 133/163/133 127/146/126
f 131/153/129 135/164/134 136/159/135 129/154/131
f 129/154/131 136/159/135 134/162/138 125/145/125
f 139/165/139 143/166/140 144/167/141 140/160/136
f 133/157/133 137/168/142 139/169/139 135/158/134
f 135/164/134 139/165/139 140/160/136 136/159/135
f 134/162/138 138/161/137 137/170/142 133/163/133
f 143/166/140 147/171/143 148/172/144 144/167/141
f 138/161/137 142/173/145 141/174/146 137/170/142
f 140/160/136 144/167/141 142/173/145 138/161/137
f 137/168/142 141/175/146 143/176/140 139/169/139
f 148/172/144 82/89/79 80/88/78 146/177/147
f 142/173/145 146/177/147 145/178/148 141/174/146
f 144/167/141 148/172/144 146/177/147 142/173/145
f 141/175/146 145/179/148 147/180/143 143/176/140
f 145/179/148 79/94/82 81/93/81 147/180/143
f 147/171/143 81/95/81 82/89/79 148/172/144
f 146/177/147 80/88/78 79/96/82 145/178/148
f 46/181/49 124/182/120 123/183/119 122/184/118 121/185/124 120/186/123 119/187/122 118/188/121 47/189/51 48/190/50 49/191/52 50/192/53 51/193/54 52/194/47 53/195/46 54/196/48
