# Blender v3.2.0 OBJ File: 'SnowmanBase.blend'
# www.blender.org
mtllib SantaBeard.mtl
o SantaBeard_Plane.010
v 0.200473 0.794053 0.572474
v 0.324886 1.244300 0.322963
v 0.352006 1.222116 0.306190
v 0.000000 0.714565 0.596835
v -0.000000 1.203052 0.500505
v 0.000000 1.115647 0.488105
v 0.284550 0.985425 0.414572
v 0.000000 0.940938 0.565754
v -0.200473 0.794053 0.572474
v -0.324886 1.244300 0.322963
v -0.352006 1.222116 0.306190
v -0.284550 0.985425 0.414572
v 0.099899 0.733693 0.589815
v 0.307345 1.096375 0.379102
v 0.189350 1.238255 0.458793
v 0.194060 1.149726 0.455032
v -0.002538 1.001167 0.531448
v 0.270897 0.919839 0.502121
v 0.000000 0.825226 0.617771
v 0.138508 0.962160 0.519204
v -0.099899 0.733693 0.589815
v -0.307345 1.096375 0.379102
v -0.189350 1.238255 0.458793
v -0.194060 1.149726 0.455032
v -0.270897 0.919839 0.502121
v -0.138508 0.962160 0.519204
v 0.176756 1.054297 0.466064
v 0.126561 0.856950 0.587215
v -0.176756 1.054297 0.466064
v -0.126561 0.856950 0.587215
v 0.176363 0.786473 0.521536
v 0.278508 1.242399 0.325013
v 0.307105 1.223778 0.307767
v -0.000000 0.721761 0.541939
v -0.000000 1.203972 0.445142
v 0.000000 1.118132 0.432791
v 0.248377 0.962361 0.373101
v 0.000000 0.912238 0.518407
v -0.176363 0.786473 0.521536
v -0.278508 1.242399 0.325013
v -0.307104 1.223781 0.307765
v -0.248377 0.962361 0.373101
v 0.085507 0.736585 0.536163
v 0.267926 1.088488 0.336151
v 0.159110 1.235572 0.409262
v 0.148411 1.153076 0.405800
v 0.000000 0.955728 0.475021
v 0.242188 0.890703 0.459750
v 0.000000 0.817355 0.562967
v 0.120627 0.932560 0.474937
v -0.085507 0.736585 0.536163
v -0.267926 1.088488 0.336151
v -0.159110 1.235572 0.409261
v -0.148411 1.153076 0.405800
v -0.242188 0.890703 0.459750
v -0.120627 0.932560 0.474937
v 0.128486 1.036659 0.418723
v 0.110316 0.841480 0.536388
v -0.128486 1.036659 0.418723
v -0.110316 0.841480 0.536388
v 0.452661 1.222313 0.089897
v 0.404091 1.220660 0.238629
v 0.398459 1.248769 0.227282
v 0.446033 1.250410 0.083927
v 0.457164 1.223538 -0.079139
v 0.447286 1.249664 -0.087320
v 0.335105 1.221853 -0.320099
v 0.320540 1.245542 -0.327834
v 0.246998 1.217718 -0.388846
v 0.235190 1.244040 -0.392153
v -0.000000 1.221305 -0.463154
v -0.000000 1.243306 -0.457919
v 0.397504 1.248092 -0.225989
v 0.409402 1.221838 -0.217346
v 0.128841 1.244563 -0.437767
v 0.135236 1.217482 -0.439873
v -0.452661 1.222313 0.089897
v -0.404091 1.220660 0.238629
v -0.398459 1.248770 0.227282
v -0.446033 1.250410 0.083927
v -0.457164 1.223538 -0.079139
v -0.447286 1.249664 -0.087320
v -0.335105 1.221853 -0.320099
v -0.320540 1.245542 -0.327834
v -0.246998 1.217718 -0.388847
v -0.235190 1.244040 -0.392153
v -0.397504 1.248092 -0.225989
v -0.409402 1.221838 -0.217346
v -0.128841 1.244563 -0.437767
v -0.135236 1.217482 -0.439873
v 0.435626 1.221279 0.087515
v 0.382016 1.247635 0.221480
v 0.387860 1.219510 0.232447
v 0.428928 1.249376 0.081761
v 0.439355 1.222511 -0.077428
v 0.429546 1.248641 -0.085277
v 0.320673 1.221068 -0.311885
v 0.306480 1.244785 -0.319241
v 0.235949 1.217101 -0.377943
v 0.224444 1.243430 -0.381071
v -0.000000 1.220580 -0.449359
v -0.000000 1.242581 -0.444124
v 0.381033 1.247152 -0.220546
v 0.392741 1.220884 -0.212263
v 0.122444 1.243913 -0.424862
v 0.128581 1.216840 -0.427043
v -0.435626 1.221279 0.087515
v -0.382016 1.247635 0.221480
v -0.387860 1.219510 0.232447
v -0.428928 1.249376 0.081761
v -0.439355 1.222511 -0.077428
v -0.429546 1.248641 -0.085277
v -0.320673 1.221068 -0.311885
v -0.306480 1.244785 -0.319241
v -0.235949 1.217101 -0.377943
v -0.224444 1.243430 -0.381072
v -0.381033 1.247152 -0.220546
v -0.392741 1.220884 -0.212263
v -0.122444 1.243913 -0.424862
v -0.128581 1.216840 -0.427043
vt 0.662654 0.851435
vt 0.707752 0.851435
vt 0.718605 0.916013
vt 0.676807 0.918331
vt 0.676807 0.784539
vt 0.718605 0.786857
vt 0.558415 0.851435
vt 0.577163 0.791505
vt 0.629600 0.786133
vt 0.587824 0.851435
vt 0.605338 0.729399
vt 0.656215 0.727819
vt 0.707248 0.726615
vt 0.445990 0.851435
vt 0.455981 0.809107
vt 0.516115 0.799308
vt 0.498900 0.851435
vt 0.487866 0.770481
vt 0.556235 0.744210
vt 0.729733 0.963434
vt 0.707248 0.976255
vt 0.679880 0.914742
vt 0.718801 0.912614
vt 0.729243 0.960606
vt 0.709502 0.974998
vt 0.629600 0.916737
vt 0.577163 0.911365
vt 0.656215 0.975051
vt 0.605338 0.973471
vt 0.516115 0.903563
vt 0.455981 0.893763
vt 0.556236 0.958660
vt 0.487866 0.932390
vt 0.718801 0.791098
vt 0.709095 0.851856
vt 0.665331 0.851856
vt 0.679880 0.788970
vt 0.543969 0.851856
vt 0.574731 0.851856
vt 0.622039 0.914860
vt 0.561791 0.911795
vt 0.652983 0.975528
vt 0.593458 0.976578
vt 0.449865 0.851856
vt 0.495389 0.851856
vt 0.508707 0.903429
vt 0.457685 0.893360
vt 0.541403 0.962804
vt 0.484344 0.933787
vt 0.709506 0.728715
vt 0.729243 0.743106
vt 0.112460 0.983356
vt 0.112139 0.983912
vt 0.110479 0.983815
vt 0.110405 0.983095
vt 0.561791 0.791917
vt 0.622039 0.788852
vt 0.652983 0.728184
vt 0.593458 0.727134
vt 0.457685 0.810352
vt 0.508707 0.800283
vt 0.541403 0.740908
vt 0.484344 0.769925
vt 0.394986 0.594949
vt 0.435451 0.571858
vt 0.446068 0.595362
vt 0.411151 0.615046
vt 0.354251 0.626404
vt 0.374327 0.642595
vt 0.112430 0.988443
vt 0.110521 0.987170
vt 0.110606 0.986977
vt 0.113092 0.987921
vt 0.293237 0.780358
vt 0.319393 0.738863
vt 0.343495 0.748044
vt 0.313176 0.796039
vt 0.259301 0.813422
vt 0.275856 0.833198
vt 0.443639 0.515283
vt 0.498186 0.515172
vt 0.497107 0.542267
vt 0.448245 0.542006
vt 0.376096 0.542891
vt 0.391855 0.564959
vt 0.320681 0.689088
vt 0.345416 0.696394
vt 0.479528 0.556763
vt 0.483920 0.582177
vt 0.530059 0.546994
vt 0.528934 0.572761
vt 0.113474 0.980776
vt 0.112031 0.981098
vt 0.112008 0.980506
vt 0.113151 0.980412
vt 0.110443 0.983972
vt 0.111740 0.984435
vt 0.637481 0.595188
vt 0.685906 0.602995
vt 0.684490 0.628322
vt 0.628435 0.619341
vt 0.733149 0.599393
vt 0.737046 0.624888
vt 0.310254 0.649376
vt 0.328062 0.597818
vt 0.351843 0.610848
vt 0.336233 0.657150
vt 0.599283 0.563248
vt 0.588413 0.586636
vt 0.108573 0.983633
vt 0.108508 0.982956
vt 0.106722 0.983711
vt 0.106553 0.983112
vt 0.105006 0.983409
vt 0.105254 0.983964
vt 0.104085 0.984275
vt 0.103789 0.983808
vt 0.103202 0.984676
vt 0.102875 0.984192
vt 0.102002 0.984661
vt 0.102355 0.985122
vt 0.101484 0.985680
vt 0.101183 0.985326
vt 0.097511 0.994075
vt 0.097676 0.992180
vt 0.098334 0.992353
vt 0.098211 0.994263
vt 0.098141 0.990275
vt 0.098705 0.990537
vt 0.098681 0.988796
vt 0.100547 0.987713
vt 0.099683 0.988024
vt 0.099189 0.989129
vt 0.100361 0.987746
vt 0.100219 0.987216
vt 0.100395 0.986029
vt 0.100794 0.986451
vt 0.110518 0.981452
vt 0.110438 0.980873
vt 0.108907 0.981831
vt 0.108854 0.981285
vt 0.107572 0.982168
vt 0.106486 0.982445
vt 0.106455 0.981940
vt 0.107525 0.981615
vt 0.105653 0.982686
vt 0.105564 0.982143
vt 0.104823 0.982980
vt 0.103929 0.983277
vt 0.103763 0.982852
vt 0.104670 0.982441
vt 0.096495 0.987167
vt 0.096111 0.986717
vt 0.097513 0.985922
vt 0.097847 0.986402
vt 0.098957 0.985151
vt 0.099289 0.985589
vt 0.100499 0.984931
vt 0.100159 0.984493
vt 0.101165 0.984006
vt 0.101484 0.984399
vt 0.101958 0.983552
vt 0.102260 0.984012
vt 0.103070 0.983665
vt 0.102817 0.983165
vt 0.110606 0.996088
vt 0.108256 0.996850
vt 0.108226 0.996641
vt 0.110521 0.995896
vt 0.112430 0.994622
vt 0.113092 0.995144
vt 0.108569 0.983790
vt 0.105625 0.996797
vt 0.105657 0.996589
vt 0.106737 0.983860
vt 0.103515 0.996202
vt 0.103599 0.996009
vt 0.105284 0.984104
vt 0.104133 0.984415
vt 0.101968 0.995291
vt 0.100992 0.994287
vt 0.101161 0.994162
vt 0.102099 0.995126
vt 0.103261 0.984798
vt 0.100298 0.993042
vt 0.100496 0.992967
vt 0.102425 0.985240
vt 0.101576 0.985788
vt 0.099996 0.991533
vt 0.100207 0.991533
vt 0.108256 0.986215
vt 0.108227 0.986424
vt 0.097442 0.996145
vt 0.098042 0.995917
vt 0.098489 0.992373
vt 0.098371 0.994253
vt 0.105625 0.986268
vt 0.105657 0.986477
vt 0.098851 0.990576
vt 0.103515 0.986863
vt 0.103599 0.987057
vt 0.099813 0.988094
vt 0.099323 0.989180
vt 0.102100 0.987939
vt 0.101161 0.988904
vt 0.100330 0.987294
vt 0.100298 0.990023
vt 0.100496 0.990098
vt 0.100900 0.986539
vt 0.729733 0.739436
vt 0.095216 0.987909
vt 0.095206 0.987422
vt 0.098622 0.995607
vn 0.0009 0.0942 0.9956
vn -0.0000 0.5671 0.8236
vn -0.2811 0.6730 0.6841
vn -0.4502 0.0828 0.8891
vn 0.4499 0.0819 0.8893
vn 0.2811 0.6730 0.6841
vn 0.0012 0.4655 0.8851
vn 0.2722 0.4840 0.8316
vn 0.3983 0.2366 0.8862
vn -0.0058 0.3769 0.9263
vn 0.9781 -0.1244 0.1670
vn 0.9738 -0.1662 0.1555
vn 0.8174 -0.4091 0.4054
vn 0.0000 -0.7970 0.6040
vn 0.4074 -0.7071 0.5780
vn 0.2466 0.2863 0.9259
vn 0.0000 0.1445 0.9895
vn 0.7190 -0.4417 0.5366
vn 0.8853 0.0284 0.4641
vn -0.4495 0.7535 0.4798
vn -0.8174 -0.4092 0.4054
vn -0.3856 0.0054 -0.9227
vn -0.3439 0.7747 -0.5306
vn -0.4370 0.7100 -0.5522
vn -0.3343 -0.4461 -0.8302
vn -0.3993 0.2366 0.8857
vn -0.2742 0.4816 0.8324
vn -0.9738 -0.1662 0.1555
vn -0.9781 -0.1244 0.1670
vn -0.2466 0.2863 0.9259
vn -0.4074 -0.7071 0.5780
vn -0.8853 0.0284 0.4641
vn -0.7190 -0.4417 0.5366
vn 0.3439 0.7747 -0.5306
vn -0.0000 0.7694 -0.6387
vn -0.0000 -0.0570 -0.9984
vn 0.3856 0.0054 -0.9227
vn -0.0000 -0.5153 -0.8570
vn 0.0000 -0.4506 -0.8927
vn -0.3516 -0.2408 -0.9047
vn -0.2537 -0.5275 -0.8108
vn 0.0372 -0.2894 -0.9565
vn 0.1875 -0.5236 -0.8311
vn -0.0000 -0.6770 -0.7360
vn -0.0000 -0.1417 -0.9899
vn -0.2557 -0.2842 -0.9240
vn 0.0886 -0.6766 -0.7310
vn 0.4008 -0.6839 -0.6096
vn 0.3097 -0.6663 -0.6784
vn 0.3343 -0.4461 -0.8302
vn 0.4370 0.7100 -0.5522
vn 0.4495 0.7535 0.4798
vn 0.7440 -0.5173 0.4229
vn 0.5222 0.8078 0.2736
vn 0.2537 -0.5275 -0.8108
vn 0.3516 -0.2408 -0.9047
vn -0.0372 -0.2894 -0.9565
vn -0.1875 -0.5236 -0.8311
vn -0.0886 -0.6766 -0.7310
vn 0.2557 -0.2842 -0.9240
vn -0.4008 -0.6839 -0.6096
vn -0.3097 -0.6663 -0.6784
vn 0.6907 0.6191 -0.3737
vn -0.5222 0.8078 0.2736
vn -0.6907 0.6191 -0.3737
vn -0.4024 -0.8763 -0.2649
vn 0.8314 -0.5353 0.1488
vn 0.5975 0.7963 0.0941
vn 0.8409 -0.5310 -0.1041
vn 0.6042 0.7865 -0.1281
vn 0.5377 0.7763 -0.3290
vn 0.7505 -0.5568 -0.3560
vn 0.6156 -0.5772 -0.5366
vn 0.4375 0.7495 -0.4968
vn 0.4317 -0.6226 -0.6527
vn 0.3214 0.7375 -0.5940
vn 0.1789 0.7482 -0.6389
vn 0.2317 -0.6149 -0.7538
vn 0.0000 -0.5806 -0.8142
vn 0.0000 0.7456 -0.6664
vn -0.5975 0.7963 0.0941
vn -0.8314 -0.5353 0.1488
vn -0.7440 -0.5173 0.4229
vn -0.6042 0.7865 -0.1281
vn -0.8409 -0.5310 -0.1041
vn -0.5377 0.7763 -0.3290
vn -0.4375 0.7495 -0.4968
vn -0.6156 -0.5772 -0.5366
vn -0.7505 -0.5568 -0.3560
vn -0.3214 0.7375 -0.5940
vn -0.4317 -0.6226 -0.6527
vn -0.1789 0.7482 -0.6389
vn -0.2318 -0.6149 -0.7538
vn -0.7813 0.6128 -0.1189
vn -0.5175 -0.8494 -0.1038
vn -0.7710 0.6194 0.1483
vn -0.5186 -0.8524 0.0668
vn -0.6739 0.6340 0.3794
vn -0.5181 0.6598 0.5443
vn -0.4224 -0.8147 0.3974
vn -0.4915 -0.8376 0.2386
vn -0.3602 0.6715 0.6475
vn -0.3162 -0.7930 0.5207
vn -0.2058 0.6678 0.7153
vn -0.0000 0.6600 0.7512
vn 0.0000 -0.8159 0.5782
vn -0.1933 -0.7998 0.5683
vn 0.4024 -0.8763 -0.2649
vn 0.5175 -0.8494 -0.1038
vn 0.7813 0.6128 -0.1189
vn 0.5186 -0.8524 0.0668
vn 0.7710 0.6194 0.1483
vn 0.6739 0.6340 0.3794
vn 0.4915 -0.8376 0.2386
vn 0.4224 -0.8147 0.3973
vn 0.5181 0.6598 0.5443
vn 0.3162 -0.7930 0.5207
vn 0.3602 0.6715 0.6475
vn 0.2058 0.6678 0.7153
vn 0.1933 -0.7998 0.5683
usemtl Material
s 1
f 6/1/1 5/2/2 23/3/3 24/4/4
f 16/5/5 15/6/6 5/2/2 6/1/1
f 8/7/7 20/8/8 27/9/9 17/10/10
f 20/8/8 7/11/11 14/12/12 27/9/9
f 27/9/9 14/12/12 3/13/13 16/5/5
f 17/10/10 27/9/9 16/5/5 6/1/1
f 4/14/14 13/15/15 28/16/16 19/17/17
f 13/15/15 1/18/18 18/19/19 28/16/16
f 28/16/16 18/19/19 7/11/11 20/8/8
f 19/17/17 28/16/16 20/8/8 8/7/7
f 24/4/4 23/3/3 10/20/20 11/21/21
f 46/22/22 45/23/23 32/24/24 33/25/25
f 8/7/7 17/10/10 29/26/26 26/27/27
f 17/10/10 6/1/1 24/4/4 29/26/26
f 29/26/26 24/4/4 11/21/21 22/28/28
f 26/27/27 29/26/26 22/28/28 12/29/29
f 4/14/14 19/17/17 30/30/30 21/31/31
f 19/17/17 8/7/7 26/27/27 30/30/30
f 30/30/30 26/27/27 12/29/29 25/32/32
f 21/31/31 30/30/30 25/32/32 9/33/33
f 53/34/34 35/35/35 36/36/36 54/37/37
f 36/36/36 35/35/35 45/23/23 46/22/22
f 38/38/38 47/39/39 57/40/40 50/41/41
f 50/41/41 57/40/40 44/42/42 37/43/43
f 57/40/40 46/22/22 33/25/25 44/42/42
f 47/39/39 36/36/36 46/22/22 57/40/40
f 34/44/44 49/45/45 58/46/46 43/47/47
f 43/47/47 58/46/46 48/48/48 31/49/49
f 58/46/46 50/41/41 37/43/43 48/48/48
f 49/45/45 38/38/38 50/41/41 58/46/46
f 54/37/37 41/50/50 40/51/51 53/34/34
f 2/52/52 3/53/13 62/54/53 63/55/54
f 38/38/38 56/56/55 59/57/56 47/39/39
f 47/39/39 59/57/56 54/37/37 36/36/36
f 59/57/56 52/58/57 41/50/50 54/37/37
f 56/56/55 42/59/58 52/58/57 59/57/56
f 34/44/44 51/60/59 60/61/60 49/45/45
f 49/45/45 60/61/60 56/56/55 38/38/38
f 60/61/60 55/62/61 42/59/58 56/56/55
f 51/60/59 39/63/62 55/62/61 60/61/60
f 13/64/15 4/65/14 34/66/44 43/67/47
f 1/68/18 13/64/15 43/67/47 31/69/49
f 40/70/51 108/71/63 79/72/64 10/73/20
f 14/74/12 7/75/11 37/76/43 44/77/42
f 3/78/13 14/74/12 44/77/42 33/79/25
f 15/80/6 2/81/52 32/82/24 45/83/23
f 5/84/2 15/80/6 45/83/23 35/85/35
f 18/86/19 1/68/18 31/69/49 48/87/48
f 7/75/11 18/86/19 48/87/48 37/76/43
f 4/65/14 21/88/31 51/89/59 34/66/44
f 21/88/31 9/90/33 39/91/62 51/89/59
f 32/92/24 92/93/65 93/94/66 33/95/25
f 93/96/66 62/54/53 3/53/13 33/97/25
f 12/98/29 22/99/28 52/100/57 42/101/58
f 22/99/28 11/102/21 41/103/50 52/100/57
f 10/104/20 23/105/3 53/106/34 40/107/51
f 23/105/3 5/84/2 35/85/35 53/106/34
f 9/90/33 25/108/32 55/109/61 39/91/62
f 25/108/32 12/98/29 42/101/58 55/109/61
f 63/55/54 62/54/53 61/110/67 64/111/68
f 64/111/68 61/110/67 65/112/69 66/113/70
f 73/114/71 74/115/72 67/116/73 68/117/74
f 68/117/74 67/116/73 69/118/75 70/119/76
f 75/120/77 76/121/78 71/122/79 72/123/80
f 66/113/70 65/112/69 74/115/72 73/114/71
f 70/119/76 69/118/75 76/121/78 75/120/77
f 79/124/64 80/125/81 77/126/82 78/127/83
f 80/125/81 82/128/84 81/129/85 77/126/82
f 87/130/86 84/131/87 83/132/88 88/133/89
f 84/131/87 86/134/90 85/135/91 83/132/88
f 89/136/92 72/123/80 71/122/79 90/137/93
f 82/128/84 87/130/86 88/133/89 81/129/85
f 86/134/90 89/136/92 90/137/93 85/135/91
f 92/93/65 94/138/94 91/139/95 93/94/66
f 94/138/94 96/140/96 95/141/97 91/139/95
f 103/142/98 98/143/99 97/144/100 104/145/101
f 98/143/99 100/146/102 99/147/103 97/144/100
f 105/148/104 102/149/105 101/150/106 106/151/107
f 96/140/96 103/142/98 104/145/101 95/141/97
f 100/146/102 105/148/104 106/151/107 99/147/103
f 108/152/63 109/153/108 107/154/109 110/155/110
f 110/155/110 107/154/109 111/156/111 112/157/112
f 117/158/113 118/159/114 113/160/115 114/161/116
f 114/161/116 113/160/115 115/162/117 116/163/118
f 119/164/119 120/165/120 101/150/106 102/149/105
f 112/157/112 111/156/111 118/159/114 117/158/113
f 116/163/118 115/162/117 120/165/120 119/164/119
f 63/166/54 64/167/68 94/168/94 92/169/65
f 92/169/65 32/170/24 2/171/52 63/166/54
f 61/110/67 62/54/53 93/96/66 91/172/95
f 64/167/68 66/173/70 96/174/96 94/168/94
f 65/112/69 61/110/67 91/172/95 95/175/97
f 66/173/70 73/176/71 103/177/98 96/174/96
f 67/116/73 74/115/72 104/178/101 97/179/100
f 68/180/74 70/181/76 100/182/102 98/183/99
f 69/118/75 67/116/73 97/179/100 99/184/103
f 70/181/76 75/185/77 105/186/104 100/182/102
f 71/122/79 76/121/78 106/187/107 101/188/106
f 73/176/71 68/180/74 98/183/99 103/177/98
f 74/115/72 65/112/69 95/175/97 104/178/101
f 75/185/77 72/189/80 102/190/105 105/186/104
f 76/121/78 69/118/75 99/184/103 106/187/107
f 80/191/81 79/72/64 108/71/63 110/192/110
f 10/193/20 79/124/64 78/127/83 11/194/21
f 78/127/83 77/126/82 107/195/109 109/196/108
f 82/197/84 80/191/81 110/192/110 112/198/112
f 77/126/82 81/129/85 111/199/111 107/195/109
f 87/200/86 82/197/84 112/198/112 117/201/113
f 88/133/89 83/132/88 113/202/115 118/203/114
f 86/134/90 84/131/87 114/204/116 116/205/118
f 83/132/88 85/135/91 115/206/117 113/202/115
f 89/207/92 86/134/90 116/205/118 119/208/119
f 90/137/93 71/122/79 101/188/106 120/209/120
f 84/131/87 87/200/86 117/201/113 114/204/116
f 81/129/85 88/133/89 118/203/114 111/199/111
f 72/189/80 89/207/92 119/208/119 102/190/105
f 85/135/91 90/137/93 120/209/120 115/206/117
f 3/13/13 2/210/52 15/6/6 16/5/5
f 40/211/51 41/212/50 109/153/108 108/152/63
f 41/213/50 11/194/21 78/127/83 109/196/108
