# Blender v3.2.0 OBJ File: 'SnowmanBase.blend'
# www.blender.org
mtllib SnowmanTie.mtl
o SnowmanTie_Sphere.032
v 0.003207 0.611154 0.637343
v 0.045625 1.039467 0.403615
v 0.065120 1.032161 0.440581
v 0.023776 0.958139 0.521077
v 0.040180 0.825364 0.590485
v 0.067063 0.747043 0.585805
v -0.045559 1.039473 0.403661
v -0.065174 1.032126 0.440609
v -0.021979 0.957008 0.519719
v -0.040521 0.825781 0.590365
v -0.065392 0.747847 0.585676
v 0.083031 0.677510 0.539432
v -0.079278 0.677676 0.538925
v 0.060318 1.003402 0.488807
v -0.060518 1.003398 0.488857
v 0.030669 0.890470 0.573460
v -0.030923 0.890602 0.573367
v 0.002346 0.550405 0.635005
v 0.032277 1.005068 0.369545
v 0.050826 0.978813 0.391911
v 0.030096 0.927710 0.508448
v 0.034440 0.816097 0.565040
v 0.052820 0.740902 0.551099
v -0.032008 1.005075 0.369599
v -0.050636 0.978807 0.391913
v -0.031497 0.926200 0.506602
v -0.034415 0.816302 0.564827
v -0.051482 0.741279 0.550688
v 0.050468 0.677519 0.519327
v -0.047876 0.677949 0.518822
v 0.045981 0.953111 0.479439
v -0.047170 0.945427 0.470279
v 0.031661 0.874118 0.548437
v -0.031665 0.874247 0.548327
v 0.053095 1.028683 0.377252
v 0.083708 1.007087 0.407362
v 0.077807 0.974122 0.484943
v 0.035178 0.946713 0.519786
v 0.044733 0.882441 0.566718
v 0.056639 0.816513 0.585140
v 0.086919 0.734065 0.569992
v -0.053003 1.028688 0.377304
v -0.083747 1.007080 0.407355
v -0.078027 0.974139 0.484963
v -0.034840 0.944991 0.517691
v -0.044996 0.882576 0.566606
v -0.057001 0.816757 0.584927
v -0.085223 0.734506 0.569605
v -0.059944 0.698003 0.553712
v 0.063532 0.697512 0.554103
v 0.003643 0.564318 0.649448
vt 0.111376 0.417065
vt 0.146907 0.429214
vt 0.147057 0.465582
vt 0.111678 0.476755
vt 0.266539 0.418039
vt 0.283528 0.426814
vt 0.283532 0.467906
vt 0.266558 0.476755
vt 0.241201 0.420220
vt 0.241217 0.474674
vt 0.177376 0.433539
vt 0.216063 0.436686
vt 0.216007 0.457320
vt 0.177409 0.461296
vt 0.084894 0.474312
vt 0.084778 0.418668
vt 0.030498 0.445691
vt 0.116199 0.539549
vt 0.117356 0.492560
vt 0.151758 0.501002
vt 0.151009 0.532022
vt 0.267098 0.539549
vt 0.266005 0.493839
vt 0.281780 0.501860
vt 0.282484 0.530821
vt 0.225925 0.538607
vt 0.227637 0.496318
vt 0.178357 0.531328
vt 0.179009 0.502797
vt 0.209126 0.503460
vt 0.208600 0.531233
vt 0.084148 0.537748
vt 0.085245 0.493443
vt 0.006878 0.514665
vt 0.969979 0.009782
vt 0.969979 0.026607
vt 0.952363 0.026607
vt 0.952363 0.009782
vt 0.969979 0.056321
vt 0.969979 0.078578
vt 0.952363 0.078578
vt 0.952363 0.056321
vt 0.969979 0.108819
vt 0.969979 0.134545
vt 0.952363 0.134545
vt 0.952363 0.108819
vt 0.969979 0.167033
vt 0.952363 0.167033
vt 0.969979 0.485909
vt 0.969979 0.502733
vt 0.952363 0.502733
vt 0.952363 0.485909
vt 0.969979 0.433937
vt 0.969979 0.456194
vt 0.952363 0.456194
vt 0.952363 0.433937
vt 0.969979 0.377970
vt 0.969979 0.403696
vt 0.952363 0.403696
vt 0.952363 0.377970
vt 0.969979 0.345482
vt 0.952363 0.345482
vt 0.969979 0.538139
vt 0.952363 0.538139
vt 0.969979 0.320146
vt 0.952363 0.320146
vt 0.969979 0.192369
vt 0.952363 0.192369
vt 0.969979 0.255928
vt 0.952363 0.255928
vt 0.985367 0.009782
vt 0.985367 0.026607
vt 0.985367 0.056321
vt 0.985367 0.078578
vt 0.985367 0.108819
vt 0.985367 0.134545
vt 0.985367 0.167033
vt 0.985367 0.485909
vt 0.985367 0.502733
vt 0.985367 0.433937
vt 0.985367 0.456194
vt 0.985367 0.377970
vt 0.985367 0.403696
vt 0.985367 0.345482
vt 0.985367 0.538139
vt 0.985367 0.320146
vt 0.985367 0.192369
vt 0.985367 0.255928
vn 0.2628 -0.2048 0.9428
vn 0.2434 0.1602 0.9566
vn -0.2480 0.1600 0.9554
vn -0.2645 -0.2093 0.9414
vn 0.5087 0.8191 0.2650
vn 0.2575 0.9591 -0.1178
vn -0.2569 0.9592 -0.1179
vn -0.5085 0.8196 0.2640
vn 0.4536 0.6070 0.6525
vn -0.4540 0.6019 0.6570
vn 0.2752 0.4616 0.8433
vn 0.2181 0.5190 0.8265
vn -0.2270 0.5191 0.8240
vn -0.2876 0.4684 0.8354
vn -0.3006 -0.1875 0.9351
vn 0.3026 -0.1764 0.9366
vn 0.0006 0.3473 0.9378
vn 0.3086 0.3522 -0.8836
vn -0.3076 0.3456 -0.8865
vn -0.3615 0.0340 -0.9318
vn 0.3657 0.0369 -0.9300
vn 0.3901 -0.7140 -0.5814
vn -0.3888 -0.7053 -0.5928
vn -0.1801 -0.2018 -0.9627
vn 0.1809 -0.2019 -0.9626
vn 0.4563 -0.8595 -0.2301
vn -0.4235 -0.8761 -0.2305
vn 0.5035 -0.3322 -0.7976
vn -0.4999 -0.3370 -0.7979
vn -0.4963 -0.7146 -0.4929
vn 0.5116 -0.6807 -0.5243
vn 0.3713 -0.1516 -0.9161
vn -0.3812 -0.1500 -0.9123
vn -0.0226 -0.8600 -0.5098
vn 0.4716 0.4991 -0.7270
vn 0.9471 0.0214 -0.3202
vn 0.9134 -0.2211 0.3419
vn 0.8754 0.0210 0.4829
vn 0.9522 0.2099 0.2221
vn 0.9520 0.2397 0.1904
vn 0.9803 -0.0619 0.1874
vn -0.9461 0.0511 -0.3197
vn -0.4708 0.4989 -0.7277
vn -0.8602 0.0359 0.5087
vn -0.9124 -0.1799 0.3676
vn -0.9558 0.2270 0.1870
vn -0.9494 0.2196 0.2246
vn -0.9797 -0.0835 0.1825
vn -0.9824 -0.1487 -0.1128
vn 0.9813 -0.1382 -0.1338
vn -0.0001 -0.9984 -0.0558
usemtl Tie
s 1
f 6/1/1 5/2/2 10/3/3 11/4/4
f 3/5/5 2/6/6 7/7/7 8/8/8
f 14/9/9 3/5/5 8/8/8 15/10/10
f 16/11/11 4/12/12 9/13/13 17/14/14
f 6/1/1 11/4/4 49/15/15 50/16/16
f 1/17/17 50/16/16 49/15/15
f 4/12/12 14/9/9 15/10/10 9/13/13
f 5/2/2 16/11/11 17/14/14 10/3/3
f 23/18/18 28/19/19 27/20/20 22/21/21
f 20/22/22 25/23/23 24/24/24 19/25/25
f 31/26/26 32/27/27 25/23/23 20/22/22
f 33/28/28 34/29/29 26/30/30 21/31/31
f 23/18/18 29/32/32 30/33/33 28/19/19
f 18/34/34 30/33/33 29/32/32
f 21/31/31 26/30/30 32/27/27 31/26/26
f 22/21/21 27/20/20 34/29/29 33/28/28
f 35/35/35 36/36/36 20/37/22 19/38/25
f 37/39/37 38/40/38 21/41/31 31/42/26
f 39/43/39 40/44/40 22/45/21 33/46/28
f 40/44/40 41/47/41 23/48/18 22/45/21
f 43/49/42 42/50/43 24/51/24 25/52/23
f 45/53/44 44/54/45 32/55/27 26/56/30
f 47/57/46 46/58/47 34/59/29 27/60/20
f 48/61/48 47/57/46 27/60/20 28/62/19
f 42/50/43 35/63/35 19/64/25 24/51/24
f 13/65/49 48/61/48 28/62/19 30/66/33
f 41/47/41 12/67/50 29/68/32 23/48/18
f 12/67/50 51/69/51 18/70/34 29/68/32
f 51/69/51 13/65/49 30/66/33 18/70/34
f 36/36/36 37/39/37 31/42/26 20/37/22
f 44/54/45 43/49/42 25/52/23 32/55/27
f 38/40/38 39/43/39 33/46/28 21/41/31
f 46/58/47 45/53/44 26/56/30 34/59/29
f 2/71/6 3/72/5 36/36/36 35/35/35
f 14/73/9 4/74/12 38/40/38 37/39/37
f 16/75/11 5/76/2 40/44/40 39/43/39
f 5/76/2 6/77/1 41/47/41 40/44/40
f 8/78/8 7/79/7 42/50/43 43/49/42
f 9/80/13 15/81/10 44/54/45 45/53/44
f 10/82/3 17/83/14 46/58/47 47/57/46
f 11/84/4 10/82/3 47/57/46 48/61/48
f 7/79/7 2/85/6 35/63/35 42/50/43
f 49/86/15 11/84/4 48/61/48 13/65/49
f 6/77/1 50/87/16 12/67/50 41/47/41
f 50/87/16 1/88/17 51/69/51 12/67/50
f 1/88/17 49/86/15 13/65/49 51/69/51
f 3/72/5 14/73/9 37/39/37 36/36/36
f 15/81/10 8/78/8 43/49/42 44/54/45
f 4/74/12 16/75/11 39/43/39 38/40/38
f 17/83/14 9/80/13 45/53/44 46/58/47
