# Blender v3.2.0 OBJ File: 'SnowmanBase.blend'
# www.blender.org
mtllib WaffleConeHat.mtl
o Cone
v 0.063244 1.338664 -0.351525
v 0.120536 1.326525 -0.342787
v 0.175626 1.317451 -0.323095
v 0.226397 1.311791 -0.293206
v 0.270899 1.309762 -0.254267
v 0.307420 1.311441 -0.207776
v 0.334558 1.316765 -0.155519
v 0.351270 1.325529 -0.099504
v 0.356913 1.337396 -0.041884
v 0.351270 1.351910 0.015127
v 0.334558 1.368514 0.069338
v 0.307420 1.386568 0.118665
v 0.270899 1.405380 0.161214
v 0.226397 1.424226 0.195348
v 0.175626 1.442383 0.219756
v 0.120536 1.459152 0.233501
v 0.063244 1.473889 0.236053
v 0.005952 1.486028 0.227316
v -0.049138 1.495102 0.207624
v -0.099910 1.500762 0.177734
v -0.144411 1.502792 0.138795
v -0.180933 1.501112 0.092304
v -0.208071 1.495788 0.040047
v -0.224782 1.487024 -0.015968
v -0.230425 1.475157 -0.073588
v -0.224782 1.460643 -0.130599
v -0.208070 1.444039 -0.184810
v -0.180933 1.425985 -0.234137
v -0.144411 1.407173 -0.276685
v -0.099910 1.388327 -0.310820
v -0.049138 1.370170 -0.335228
v 0.005952 1.353401 -0.348972
v 0.063244 1.325599 -0.408297
v 0.131607 1.311114 -0.397870
v 0.197343 1.300287 -0.374373
v 0.257925 1.293533 -0.338708
v 0.311026 1.291111 -0.292245
v 0.354605 1.293115 -0.236769
v 0.386987 1.299468 -0.174414
v 0.406928 1.309926 -0.107575
v 0.413661 1.324086 -0.038820
v 0.406928 1.341405 0.029207
v 0.386987 1.361216 0.093893
v 0.354605 1.382760 0.152753
v 0.311026 1.405207 0.203523
v 0.257925 1.427695 0.244254
v 0.197343 1.449360 0.273379
v 0.131607 1.469370 0.289779
v 0.063244 1.486954 0.292825
v -0.005119 1.501439 0.282399
v -0.070855 1.512266 0.258901
v -0.131437 1.519021 0.223236
v -0.184538 1.521442 0.176773
v -0.228117 1.519438 0.121298
v -0.260499 1.513085 0.058943
v -0.280440 1.502627 -0.007897
v -0.287173 1.488467 -0.076651
v -0.280440 1.471148 -0.144679
v -0.260499 1.451337 -0.209365
v -0.228117 1.429793 -0.268224
v -0.184538 1.407346 -0.318995
v -0.131437 1.384858 -0.359725
v -0.070855 1.363193 -0.388850
v -0.005119 1.343183 -0.405251
v 0.165905 1.791199 -0.287026
v 0.191964 1.785678 -0.283052
v 0.217021 1.781551 -0.274095
v 0.240114 1.778976 -0.260500
v 0.260355 1.778053 -0.242789
v 0.276966 1.778817 -0.221643
v 0.289309 1.781239 -0.197875
v 0.296910 1.785225 -0.172397
v 0.299477 1.790622 -0.146189
v 0.296910 1.797224 -0.120258
v 0.289309 1.804776 -0.095601
v 0.276966 1.812988 -0.073165
v 0.260355 1.821544 -0.053812
v 0.240114 1.830116 -0.038287
v 0.217021 1.838374 -0.027185
v 0.191964 1.846002 -0.020933
v 0.165905 1.852705 -0.019772
v 0.139846 1.858226 -0.023747
v 0.114789 1.862353 -0.032703
v 0.091696 1.864928 -0.046298
v 0.071455 1.865851 -0.064009
v 0.054844 1.865087 -0.085155
v 0.042500 1.862665 -0.108924
v 0.034899 1.858679 -0.134402
v 0.032333 1.853281 -0.160609
v 0.034899 1.846680 -0.186540
v 0.042500 1.839128 -0.211197
v 0.054844 1.830916 -0.233633
v 0.071455 1.822360 -0.252986
v 0.091696 1.813787 -0.268512
v 0.114789 1.805529 -0.279614
v 0.139846 1.797902 -0.285865
v 0.272053 2.250617 -0.257219
v 0.273010 2.250414 -0.257073
v 0.273930 2.250263 -0.256744
v 0.274778 2.250168 -0.256245
v 0.275522 2.250134 -0.255595
v 0.276132 2.250163 -0.254818
v 0.276585 2.250252 -0.253945
v 0.276864 2.250398 -0.253010
v 0.276958 2.250596 -0.252047
v 0.276864 2.250839 -0.251095
v 0.276585 2.251116 -0.250189
v 0.276132 2.251417 -0.249366
v 0.275522 2.251732 -0.248655
v 0.274778 2.252046 -0.248085
v 0.273930 2.252350 -0.247677
v 0.273010 2.252630 -0.247447
v 0.272053 2.252876 -0.247405
v 0.271096 2.253079 -0.247551
v 0.270176 2.253230 -0.247880
v 0.269328 2.253325 -0.248379
v 0.268585 2.253359 -0.249029
v 0.267975 2.253331 -0.249806
v 0.267521 2.253242 -0.250679
v 0.267242 2.253095 -0.251614
v 0.267148 2.252897 -0.252577
v 0.267242 2.252655 -0.253529
v 0.267521 2.252377 -0.254435
v 0.267975 2.252076 -0.255258
v 0.268585 2.251761 -0.255969
v 0.269328 2.251447 -0.256539
v 0.270176 2.251143 -0.256947
v 0.271096 2.250863 -0.257177
vt 0.673073 0.426587
vt 0.669927 0.403140
vt 0.910358 0.377394
vt 0.911789 0.388058
vt 0.506775 0.630244
vt 0.507140 0.630395
vt 0.507469 0.630615
vt 0.507748 0.630894
vt 0.507968 0.631223
vt 0.508119 0.631588
vt 0.508196 0.631975
vt 0.508196 0.632371
vt 0.508119 0.632758
vt 0.507968 0.633123
vt 0.507748 0.633452
vt 0.507469 0.633731
vt 0.507140 0.633951
vt 0.506775 0.634102
vt 0.506388 0.634179
vt 0.505992 0.634179
vt 0.505605 0.634102
vt 0.505240 0.633951
vt 0.504911 0.633731
vt 0.504632 0.633452
vt 0.504412 0.633123
vt 0.504261 0.632758
vt 0.504184 0.632371
vt 0.504184 0.631975
vt 0.504261 0.631588
vt 0.504412 0.631223
vt 0.504632 0.630894
vt 0.504911 0.630615
vt 0.505240 0.630395
vt 0.505605 0.630244
vt 0.505992 0.630167
vt 0.506388 0.630167
vt 0.176798 0.893568
vt 0.200001 0.888953
vt 0.206770 0.911268
vt 0.179084 0.916775
vt 0.153141 0.893568
vt 0.150856 0.916775
vt 0.129939 0.888953
vt 0.123170 0.911268
vt 0.108082 0.879900
vt 0.097089 0.900466
vt 0.088412 0.866757
vt 0.073618 0.884783
vt 0.071684 0.850029
vt 0.053658 0.864823
vt 0.058541 0.830359
vt 0.037975 0.841352
vt 0.049488 0.808502
vt 0.027172 0.815272
vt 0.044873 0.785300
vt 0.021665 0.787586
vt 0.044873 0.761643
vt 0.021665 0.759357
vt 0.049488 0.738440
vt 0.027172 0.731671
vt 0.058541 0.716584
vt 0.037975 0.705591
vt 0.071684 0.696914
vt 0.053658 0.682120
vt 0.088412 0.680186
vt 0.073618 0.662160
vt 0.108082 0.667043
vt 0.097090 0.646477
vt 0.129939 0.657990
vt 0.123169 0.635674
vt 0.153141 0.653374
vt 0.150855 0.630167
vt 0.176798 0.653374
vt 0.179084 0.630167
vt 0.200001 0.657990
vt 0.206770 0.635674
vt 0.221857 0.667043
vt 0.232850 0.646477
vt 0.241527 0.680186
vt 0.256321 0.662160
vt 0.258255 0.696914
vt 0.276281 0.682120
vt 0.271398 0.716584
vt 0.291964 0.705591
vt 0.280451 0.738440
vt 0.302767 0.731671
vt 0.285067 0.761643
vt 0.308274 0.759357
vt 0.285067 0.785300
vt 0.308274 0.787585
vt 0.280451 0.808502
vt 0.302767 0.815272
vt 0.271398 0.830358
vt 0.291964 0.841351
vt 0.258255 0.850029
vt 0.276281 0.864822
vt 0.241527 0.866756
vt 0.256321 0.884783
vt 0.221857 0.879900
vt 0.232850 0.900466
vt 0.351604 0.679412
vt 0.353703 0.668858
vt 0.357821 0.658917
vt 0.363799 0.649971
vt 0.371408 0.642362
vt 0.380354 0.636384
vt 0.390295 0.632266
vt 0.400849 0.630167
vt 0.411609 0.630167
vt 0.422162 0.632266
vt 0.432103 0.636384
vt 0.441050 0.642362
vt 0.448659 0.649971
vt 0.454637 0.658917
vt 0.458755 0.668858
vt 0.460854 0.679412
vt 0.460854 0.690172
vt 0.458755 0.700725
vt 0.454637 0.710666
vt 0.448659 0.719613
vt 0.441050 0.727222
vt 0.432104 0.733200
vt 0.422162 0.737317
vt 0.411609 0.739417
vt 0.400849 0.739417
vt 0.390296 0.737317
vt 0.380354 0.733200
vt 0.371408 0.727222
vt 0.363799 0.719613
vt 0.357821 0.710666
vt 0.353703 0.700725
vt 0.351604 0.690172
vt 0.819376 0.690156
vt 0.801970 0.674134
vt 0.970418 0.500654
vt 0.978335 0.507942
vt 0.741593 0.110332
vt 0.755211 0.090988
vt 0.949150 0.235409
vt 0.942956 0.244208
vt 0.668037 0.379559
vt 0.909498 0.366668
vt 0.785443 0.657207
vt 0.962900 0.492955
vt 0.769842 0.072397
vt 0.955804 0.226954
vt 0.667406 0.355910
vt 0.909211 0.355911
vt 0.769842 0.639423
vt 0.955804 0.484866
vt 0.668037 0.332262
vt 0.909498 0.345154
vt 0.755212 0.620833
vt 0.949149 0.476410
vt 0.669928 0.308681
vt 0.910358 0.334428
vt 0.741593 0.601489
vt 0.942955 0.467611
vt 0.673073 0.285234
vt 0.911789 0.323763
vt 0.729025 0.581447
vt 0.937239 0.458495
vt 0.677464 0.261988
vt 0.913786 0.313189
vt 0.717544 0.560763
vt 0.932016 0.449087
vt 0.683088 0.239009
vt 0.916344 0.302738
vt 0.707181 0.539496
vt 0.927303 0.439414
vt 0.689929 0.216363
vt 0.919456 0.292437
vt 0.697968 0.517707
vt 0.923112 0.429504
vt 0.697968 0.194114
vt 0.923113 0.282317
vt 0.689929 0.495458
vt 0.919456 0.419383
vt 0.707182 0.172325
vt 0.927303 0.272406
vt 0.683088 0.472812
vt 0.916344 0.409083
vt 0.785443 0.054613
vt 0.962900 0.218864
vt 0.717544 0.151058
vt 0.932017 0.262732
vt 0.677464 0.449833
vt 0.913786 0.398631
vt 0.801969 0.037687
vt 0.970418 0.211165
vt 0.729025 0.130374
vt 0.937239 0.253324
vt 0.819375 0.021665
vt 0.978335 0.203878
vt 0.423477 0.628886
vt 0.637125 0.249449
vt 0.643916 0.252862
vt 0.445488 0.640476
vt 0.401942 0.616432
vt 0.630475 0.245770
vt 0.380919 0.603134
vt 0.623976 0.241829
vt 0.360439 0.589011
vt 0.617639 0.237634
vt 0.340536 0.574088
vt 0.611473 0.233190
vt 0.321241 0.558387
vt 0.605489 0.228506
vt 0.302583 0.541932
vt 0.599694 0.223588
vt 0.284593 0.524750
vt 0.594100 0.218444
vt 0.267299 0.506868
vt 0.588714 0.213082
vt 0.250728 0.488314
vt 0.583545 0.207510
vt 0.234906 0.469118
vt 0.578601 0.201738
vt 0.219858 0.449308
vt 0.573890 0.195774
vt 0.205608 0.428918
vt 0.569419 0.189628
vt 0.192178 0.407978
vt 0.565196 0.183309
vt 0.179589 0.386521
vt 0.561226 0.176828
vt 0.167861 0.364582
vt 0.557517 0.170195
vt 0.157013 0.342196
vt 0.554074 0.163419
vt 0.147062 0.319396
vt 0.550903 0.156513
vt 0.138023 0.296220
vt 0.548008 0.149486
vt 0.129910 0.272703
vt 0.545394 0.142349
vt 0.122737 0.248883
vt 0.543065 0.135115
vt 0.116515 0.224798
vt 0.541025 0.127794
vt 0.111253 0.200484
vt 0.539277 0.120397
vt 0.106959 0.175980
vt 0.537824 0.112937
vt 0.103641 0.151326
vt 0.536668 0.105426
vt 0.101304 0.126559
vt 0.535810 0.097874
vt 0.099951 0.101719
vt 0.535254 0.090295
vt 0.099585 0.076845
vt 0.534998 0.082699
vt 0.100206 0.051976
vt 0.535044 0.075099
vt 0.490804 0.660992
vt 0.657876 0.258867
vt 0.665024 0.261449
vt 0.514037 0.669886
vt 0.467943 0.651184
vt 0.650836 0.256003
vn -0.1962 -0.9167 -0.3480
vn -0.0931 -0.9386 -0.3323
vn -0.0762 -0.9198 -0.3850
vn -0.1885 -0.8960 -0.4021
vn 0.0792 0.6661 -0.7417
vn -0.0273 0.6985 -0.7151
vn -0.1254 0.7336 -0.6679
vn -0.2116 0.7701 -0.6018
vn -0.2823 0.8066 -0.5193
vn -0.3349 0.8417 -0.4236
vn -0.3673 0.8739 -0.3183
vn -0.3783 0.9021 -0.2076
vn -0.3673 0.9252 -0.0957
vn -0.3349 0.9422 0.0131
vn -0.2823 0.9525 0.1144
vn -0.2116 0.9557 0.2046
vn -0.1254 0.9518 0.2800
vn -0.0273 0.9408 0.3378
vn 0.0792 0.9233 0.3759
vn 0.1898 0.8998 0.3928
vn 0.3005 0.8714 0.3878
vn 0.4070 0.8390 0.3613
vn 0.5052 0.8039 0.3140
vn 0.5913 0.7674 0.2479
vn 0.6620 0.7310 0.1654
vn 0.7147 0.6960 0.0697
vn 0.7471 0.6638 -0.0355
vn 0.7581 0.6356 -0.1463
vn 0.7471 0.6125 -0.2582
vn 0.7147 0.5955 -0.3669
vn 0.6620 0.5851 -0.4683
vn 0.5913 0.5818 -0.5584
vn 0.5052 0.5857 -0.6338
vn 0.4070 0.5967 -0.6916
vn 0.3005 0.6141 -0.7297
vn 0.1899 0.6376 -0.7466
vn -0.2994 -0.6505 0.6980
vn -0.1962 -0.6724 0.7137
vn -0.1261 -0.6994 -0.7035
vn 0.0334 -0.7332 -0.6792
vn -0.3986 -0.6342 0.6625
vn 0.1869 -0.7585 -0.6244
vn -0.4901 -0.6241 0.6086
vn 0.3285 -0.7742 -0.5411
vn -0.5703 -0.6205 0.5383
vn 0.4527 -0.7798 -0.4324
vn -0.6362 -0.6236 0.4543
vn 0.5547 -0.7750 -0.3026
vn -0.6852 -0.6332 0.3599
vn 0.6307 -0.7601 -0.1565
vn -0.7154 -0.6491 0.2586
vn 0.6775 -0.7355 0.0003
vn -0.7256 -0.6706 0.1543
vn 0.6933 -0.7023 0.1616
vn -0.7154 -0.6969 0.0512
vn 0.6775 -0.6617 0.3213
vn -0.6852 -0.7268 -0.0469
vn 0.6307 -0.6152 0.4730
vn -0.6362 -0.7594 -0.1360
vn 0.5547 -0.5648 0.6109
vn -0.5703 -0.7934 -0.2129
vn 0.4527 -0.5123 0.7298
vn -0.4901 -0.8273 -0.2746
vn 0.3285 -0.4598 0.8251
vn -0.3986 -0.8600 -0.3186
vn 0.1869 -0.4092 0.8931
vn -0.2994 -0.8902 -0.3434
vn 0.0334 -0.3626 0.9314
vn -0.1261 -0.3215 0.9385
vn -0.2856 -0.2877 0.9141
vn 0.0061 -0.9549 -0.2968
vn -0.4390 -0.2624 0.8593
vn 0.0976 -0.9651 -0.2429
vn -0.5806 -0.2466 0.7760
vn 0.1778 -0.9688 -0.1725
vn -0.7047 -0.2408 0.6673
vn 0.2437 -0.9658 -0.0885
vn -0.8068 -0.2455 0.5375
vn 0.2926 -0.9562 0.0059
vn -0.8827 -0.2603 0.3913
vn 0.3228 -0.9404 0.1072
vn -0.9295 -0.2848 0.2345
vn 0.3330 -0.9189 0.2115
vn -0.9453 -0.3180 0.0732
vn 0.3228 -0.8926 0.3146
vn -0.9295 -0.3586 -0.0864
vn 0.2926 -0.8626 0.4127
vn -0.8827 -0.4051 -0.2382
vn 0.2437 -0.8299 0.5018
vn -0.8068 -0.4557 -0.3761
vn 0.1778 -0.7959 0.5787
vn -0.7047 -0.5083 -0.4949
vn 0.0976 -0.7619 0.6403
vn -0.5806 -0.5610 -0.5901
vn 0.0061 -0.7291 0.6843
vn -0.4390 -0.6116 -0.6581
vn -0.0931 -0.6989 0.7091
vn -0.2856 -0.6584 -0.6964
vn -0.1885 -0.6301 0.7533
vn -0.3007 -0.6063 0.7362
vn -0.4086 -0.5886 0.6976
vn -0.5082 -0.5775 0.6389
vn -0.5955 -0.5735 0.5625
vn -0.6673 -0.5769 0.4711
vn -0.7206 -0.5874 0.3683
vn -0.7535 -0.6047 0.2580
vn -0.7646 -0.6280 0.1445
vn -0.7535 -0.6566 0.0322
vn -0.7206 -0.6893 -0.0745
vn -0.6673 -0.7248 -0.1715
vn -0.5955 -0.7617 -0.2552
vn -0.5082 -0.7987 -0.3222
vn -0.4086 -0.8343 -0.3701
vn -0.3007 -0.8671 -0.3971
vn 0.0317 -0.9376 -0.3463
vn 0.1313 -0.9487 -0.2877
vn 0.2186 -0.9527 -0.2112
vn 0.2903 -0.9494 -0.1198
vn 0.3437 -0.9389 -0.0170
vn 0.3766 -0.9217 0.0933
vn 0.3877 -0.8983 0.2067
vn 0.3766 -0.8697 0.3190
vn 0.3437 -0.8370 0.4258
vn 0.2903 -0.8015 0.5228
vn 0.2186 -0.7645 0.6064
vn 0.1313 -0.7275 0.6735
vn 0.0317 -0.6919 0.7213
vn -0.0762 -0.6590 0.7483
usemtl WaffleCone
s 1
f 17/1/1 18/2/2 82/3/3 81/4/4
f 128/5/5 127/6/6 126/7/7 125/8/8 124/9/9 123/10/10 122/11/11 121/12/12 120/13/13 119/14/14 118/15/15 117/16/16 116/17/17 115/18/18 114/19/19 113/20/20 112/21/21 111/22/22 110/23/23 109/24/24 108/25/25 107/26/26 106/27/27 105/28/28 104/29/29 103/30/30 102/31/31 101/32/32 100/33/33 99/34/34 98/35/35 97/36/36
f 2/37/37 1/38/38 33/39/39 34/40/40
f 3/41/41 2/37/37 34/40/40 35/42/42
f 4/43/43 3/41/41 35/42/42 36/44/44
f 5/45/45 4/43/43 36/44/44 37/46/46
f 6/47/47 5/45/45 37/46/46 38/48/48
f 7/49/49 6/47/47 38/48/48 39/50/50
f 8/51/51 7/49/49 39/50/50 40/52/52
f 9/53/53 8/51/51 40/52/52 41/54/54
f 10/55/55 9/53/53 41/54/54 42/56/56
f 11/57/57 10/55/55 42/56/56 43/58/58
f 12/59/59 11/57/57 43/58/58 44/60/60
f 13/61/61 12/59/59 44/60/60 45/62/62
f 14/63/63 13/61/61 45/62/62 46/64/64
f 15/65/65 14/63/63 46/64/64 47/66/66
f 16/67/67 15/65/65 47/66/66 48/68/68
f 17/69/1 16/67/67 48/68/68 49/70/69
f 18/71/2 17/69/1 49/70/69 50/72/70
f 19/73/71 18/71/2 50/72/70 51/74/72
f 20/75/73 19/73/71 51/74/72 52/76/74
f 21/77/75 20/75/73 52/76/74 53/78/76
f 22/79/77 21/77/75 53/78/76 54/80/78
f 23/81/79 22/79/77 54/80/78 55/82/80
f 24/83/81 23/81/79 55/82/80 56/84/82
f 25/85/83 24/83/81 56/84/82 57/86/84
f 26/87/85 25/85/83 57/86/84 58/88/86
f 27/89/87 26/87/85 58/88/86 59/90/88
f 28/91/89 27/89/87 59/90/88 60/92/90
f 29/93/91 28/91/89 60/92/90 61/94/92
f 30/95/93 29/93/91 61/94/92 62/96/94
f 31/97/95 30/95/93 62/96/94 63/98/96
f 32/99/97 31/97/95 63/98/96 64/100/98
f 1/38/38 32/99/97 64/100/98 33/39/39
f 65/101/99 66/102/100 67/103/101 68/104/102 69/105/103 70/106/104 71/107/105 72/108/106 73/109/107 74/110/108 75/111/109 76/112/110 77/113/111 78/114/112 79/115/113 80/116/114 81/117/4 82/118/3 83/119/115 84/120/116 85/121/117 86/122/118 87/123/119 88/124/120 89/125/121 90/126/122 91/127/123 92/128/124 93/129/125 94/130/126 95/131/127 96/132/128
f 4/133/43 5/134/45 69/135/103 68/136/102
f 31/137/95 32/138/97 96/139/128 95/140/127
f 18/2/2 19/141/71 83/142/115 82/3/3
f 5/134/45 6/143/47 70/144/104 69/135/103
f 32/138/97 1/145/38 65/146/99 96/139/128
f 19/141/71 20/147/73 84/148/116 83/142/115
f 6/143/47 7/149/49 71/150/105 70/144/104
f 20/147/73 21/151/75 85/152/117 84/148/116
f 7/149/49 8/153/51 72/154/106 71/150/105
f 21/151/75 22/155/77 86/156/118 85/152/117
f 8/153/51 9/157/53 73/158/107 72/154/106
f 22/155/77 23/159/79 87/160/119 86/156/118
f 9/157/53 10/161/55 74/162/108 73/158/107
f 23/159/79 24/163/81 88/164/120 87/160/119
f 10/161/55 11/165/57 75/166/109 74/162/108
f 24/163/81 25/167/83 89/168/121 88/164/120
f 11/165/57 12/169/59 76/170/110 75/166/109
f 25/167/83 26/171/85 90/172/122 89/168/121
f 12/169/59 13/173/61 77/174/111 76/170/110
f 26/171/85 27/175/87 91/176/123 90/172/122
f 13/173/61 14/177/63 78/178/112 77/174/111
f 27/175/87 28/179/89 92/180/124 91/176/123
f 14/177/63 15/181/65 79/182/113 78/178/112
f 1/145/38 2/183/37 66/184/100 65/146/99
f 28/179/89 29/185/91 93/186/125 92/180/124
f 15/181/65 16/187/67 80/188/114 79/182/113
f 2/183/37 3/189/41 67/190/101 66/184/100
f 29/185/91 30/191/93 94/192/126 93/186/125
f 16/187/67 17/1/1 81/4/4 80/188/114
f 3/189/41 4/193/43 68/194/102 67/190/101
f 30/191/93 31/137/95 95/140/127 94/192/126
f 64/195/98 128/196/5 97/197/36 33/198/39
f 63/199/96 127/200/6 128/196/5 64/195/98
f 62/201/94 126/202/7 127/200/6 63/199/96
f 61/203/92 125/204/8 126/202/7 62/201/94
f 60/205/90 124/206/9 125/204/8 61/203/92
f 59/207/88 123/208/10 124/206/9 60/205/90
f 58/209/86 122/210/11 123/208/10 59/207/88
f 57/211/84 121/212/12 122/210/11 58/209/86
f 56/213/82 120/214/13 121/212/12 57/211/84
f 55/215/80 119/216/14 120/214/13 56/213/82
f 54/217/78 118/218/15 119/216/14 55/215/80
f 53/219/76 117/220/16 118/218/15 54/217/78
f 52/221/74 116/222/17 117/220/16 53/219/76
f 51/223/72 115/224/18 116/222/17 52/221/74
f 50/225/70 114/226/19 115/224/18 51/223/72
f 49/227/69 113/228/20 114/226/19 50/225/70
f 48/229/68 112/230/21 113/228/20 49/227/69
f 47/231/66 111/232/22 112/230/21 48/229/68
f 46/233/64 110/234/23 111/232/22 47/231/66
f 45/235/62 109/236/24 110/234/23 46/233/64
f 44/237/60 108/238/25 109/236/24 45/235/62
f 43/239/58 107/240/26 108/238/25 44/237/60
f 42/241/56 106/242/27 107/240/26 43/239/58
f 41/243/54 105/244/28 106/242/27 42/241/56
f 40/245/52 104/246/29 105/244/28 41/243/54
f 39/247/50 103/248/30 104/246/29 40/245/52
f 38/249/48 102/250/31 103/248/30 39/247/50
f 37/251/46 101/252/32 102/250/31 38/249/48
f 36/253/44 100/254/33 101/252/32 37/251/46
f 35/255/42 99/256/34 100/257/33 36/258/44
f 34/259/40 98/260/35 99/256/34 35/255/42
f 33/198/39 97/197/36 98/260/35 34/259/40
