# Blender 3.5.1
# www.blender.org
mtllib SpruceLow.mtl
o Spruce.001_Spruce.001
v -2.968721 -0.340145 -0.000000
v 3.125497 -0.340145 -0.000000
v -2.968721 11.177301 0.000000
v 3.125497 11.177301 0.000000
v -2.076243 -0.340144 2.154631
v 2.233019 -0.340145 -2.154632
v -2.076243 11.177301 2.154632
v 2.233020 11.177301 -2.154631
v -2.076243 -0.340144 -2.154632
v 2.233020 -0.340144 2.154631
v -2.076243 11.177301 -2.154631
v 2.233019 11.177301 2.154632
v 0.078389 -0.340144 -3.047109
v 0.078388 -0.340144 3.047109
v 0.078388 11.177301 -3.047109
v 0.078388 11.177301 3.047109
vn -0.0000 -0.0000 1.0000
vn 0.7071 -0.0000 0.7071
vn -0.7071 -0.0000 0.7071
vn -1.0000 -0.0000 -0.0000
vt 0.000000 0.000000
vt 1.000000 0.000000
vt 0.000000 1.000000
vt 1.000000 1.000000
vt 0.000000 0.000000
vt 1.000000 0.000000
vt 0.000000 1.000000
vt 1.000000 1.000000
vt 0.000000 0.000000
vt 1.000000 0.000000
vt 0.000000 1.000000
vt 1.000000 1.000000
vt 0.000000 0.000000
vt 1.000000 0.000000
vt 0.000000 1.000000
vt 1.000000 1.000000
s 0
usemtl SpruceSnow
f 1/1/1 2/2/1 4/4/1 3/3/1
f 5/5/2 6/6/2 8/8/2 7/7/2
f 9/9/3 10/10/3 12/12/3 11/11/3
f 13/13/4 14/14/4 16/16/4 15/15/4
