# Blender v3.2.0 OBJ File: 'SnowmanBase.blend'
# www.blender.org
mtllib SnowmanSmileLow.mtl
o SnowmanSmileLow_Snowman_Singular.001_Sphere.004
v 0.205344 1.299787 0.366179
v 0.179391 1.318203 0.347555
v 0.191250 1.359480 0.314599
v 0.224555 1.325903 0.323935
v 0.196317 1.407544 0.319273
v 0.219396 1.389854 0.307931
v 0.236721 1.307956 0.352922
v 0.246576 1.361412 0.316200
v 0.253904 1.335737 0.347780
v 0.239834 1.395952 0.325882
v 0.226328 1.319283 0.380270
v 0.244279 1.376914 0.351992
v 0.198681 1.389127 0.375612
v 0.178416 1.411458 0.346196
v 0.195303 1.323792 0.392137
v 0.161320 1.352311 0.382737
v 0.168064 1.317770 0.373057
v 0.154326 1.375223 0.343327
v -0.217344 1.299198 0.364873
v -0.179391 1.318204 0.347555
v -0.235934 1.317292 0.334703
v -0.240464 1.359804 0.310801
v -0.191250 1.359479 0.314599
v -0.193997 1.407011 0.318171
v -0.253904 1.335737 0.347780
v -0.236425 1.401075 0.324294
v -0.226328 1.319282 0.380270
v -0.244279 1.376914 0.351992
v -0.195303 1.323792 0.392137
v -0.198681 1.389128 0.375612
v -0.175481 1.407470 0.350181
v -0.161320 1.352311 0.382737
v -0.168063 1.317770 0.373057
v -0.154326 1.375223 0.343327
v -0.011587 1.058022 0.422657
v -0.000000 1.082779 0.395063
v 0.033585 1.077162 0.426208
v 0.000000 1.120426 0.411559
v 0.013257 1.123677 0.439095
v 0.000000 1.061741 0.448657
v -0.000000 1.099387 0.465154
v -0.034551 1.104113 0.433045
v 0.083605 1.075822 0.417146
v 0.087142 1.092161 0.393809
v 0.124071 1.103511 0.413233
v 0.079119 1.132389 0.396381
v 0.109376 1.139136 0.424043
v 0.073412 1.140707 0.433890
v 0.100061 1.088868 0.449821
v 0.092038 1.129097 0.452392
v 0.056387 1.103544 0.430342
v 0.173627 1.111104 0.400559
v 0.152291 1.120051 0.384682
v 0.144086 1.159174 0.382660
v 0.186032 1.161808 0.404811
v 0.155387 1.172849 0.428537
v 0.170143 1.124252 0.441966
v 0.128941 1.119354 0.419042
v 0.130106 1.160189 0.423566
v 0.213146 1.155992 0.386438
v 0.208494 1.167069 0.360365
v 0.246857 1.182163 0.365530
v 0.197562 1.206570 0.357278
v 0.221515 1.228250 0.385801
v 0.237311 1.178805 0.411840
v 0.185877 1.197959 0.402405
v -0.083605 1.075822 0.417146
v -0.124070 1.103511 0.413233
v -0.087142 1.092161 0.393809
v -0.079119 1.132389 0.396380
v -0.109376 1.139136 0.424043
v -0.073412 1.140707 0.433890
v -0.100060 1.088868 0.449821
v -0.092038 1.129097 0.452392
v -0.056387 1.103544 0.430342
v -0.163309 1.108595 0.395366
v -0.144086 1.159174 0.382660
v -0.186032 1.161808 0.404811
v -0.155387 1.172849 0.428537
v -0.170143 1.124252 0.441966
v -0.128941 1.119354 0.419042
v -0.130106 1.160189 0.423566
v -0.213146 1.155992 0.386437
v -0.246857 1.182163 0.365530
v -0.208494 1.167069 0.360365
v -0.197562 1.206569 0.357278
v -0.233444 1.220266 0.373122
v -0.217328 1.224880 0.396426
v -0.237311 1.178805 0.411840
v -0.185877 1.197959 0.402405
v 0.002683 1.315113 0.556272
v -0.000241 1.294907 0.673268
v 0.017338 1.289539 0.637102
v 0.015469 1.272272 0.639334
v 0.023403 1.250027 0.586939
v -0.004153 1.267538 0.641671
v -0.007750 1.244504 0.595858
v -0.020787 1.278606 0.639235
v -0.012529 1.296730 0.637421
v -0.040986 1.293979 0.537448
v -0.053543 1.327833 0.394976
v -0.072894 1.314351 0.426056
v -0.074788 1.268352 0.406330
v -0.075608 1.262081 0.436716
v -0.019771 1.210188 0.420133
v -0.030082 1.207831 0.448170
v 0.011690 1.203419 0.442143
v 0.057598 1.232416 0.417009
v 0.066673 1.228876 0.446833
v 0.071429 1.305697 0.401912
v 0.074205 1.318437 0.433154
v 0.040957 1.291769 0.550878
v 0.011016 1.352610 0.392345
v 0.002814 1.358976 0.424073
vt 0.179694 0.965238
vt 0.171763 0.950351
vt 0.184156 0.944457
vt 0.168566 0.980756
vt 0.161420 0.936422
vt 0.171206 0.924090
vt 0.163831 0.965565
vt 0.154240 0.978680
vt 0.155900 0.949787
vt 0.159865 0.997334
vt 0.147968 0.965002
vt 0.151934 0.918019
vt 0.145533 0.935149
vt 0.144003 0.997334
vt 0.127150 0.980286
vt 0.136071 0.918019
vt 0.130888 0.936470
vt 0.135602 0.965105
vt 0.124174 0.949788
vt 0.199522 0.918019
vt 0.203488 0.931239
vt 0.193898 0.936672
vt 0.203488 0.949788
vt 0.201077 0.978932
vt 0.192992 0.965383
vt 0.188181 0.991263
vt 0.079481 0.965383
vt 0.067790 0.980285
vt 0.097764 0.988378
vt 0.083549 0.927436
vt 0.068986 0.949787
vt 0.079354 0.944457
vt 0.058619 0.935149
vt 0.061054 0.965002
vt 0.048688 0.965105
vt 0.038920 0.978680
vt 0.049157 0.997334
vt 0.049157 0.918019
vt 0.043974 0.936470
vt 0.037260 0.949788
vt 0.112608 0.918019
vt 0.106984 0.936672
vt 0.116574 0.931239
vt 0.116574 0.949788
vt 0.106079 0.965383
vt 0.116574 0.978680
vt 0.097242 0.944457
vt 0.092780 0.965238
vt 0.109537 0.991999
vt 0.017333 0.976291
vt 0.020039 0.983956
vt 0.014628 0.984308
vt 0.011922 0.976291
vt 0.009217 0.981702
vt 0.013206 0.995367
vt 0.009217 0.990270
vt 0.025450 0.989639
vt 0.020039 0.992524
vt 0.023867 0.978535
vt 0.017333 0.976291
vt 0.020039 0.981702
vt 0.014628 0.984309
vt 0.020039 0.990270
vt 0.014628 0.992524
vt 0.017333 0.997935
vt 0.011922 0.976291
vt 0.009217 0.983956
vt 0.011922 0.997935
vt 0.009217 0.992524
vt 0.003806 0.987113
vt 0.005389 0.978535
vt 0.020039 0.989917
vt 0.017333 0.997935
vt 0.014628 0.989917
vt 0.009217 0.984587
vt 0.013206 0.978859
vt 0.006511 0.976291
vt 0.003806 0.983956
vt 0.022745 0.976291
vt 0.025450 0.983956
vt 0.020039 0.981702
vt 0.025450 0.992524
vt 0.022745 0.997935
vt 0.017333 0.976291
vt 0.020039 0.981702
vt 0.014628 0.983956
vt 0.020039 0.990270
vt 0.010176 0.994540
vt 0.011922 0.976291
vt 0.009217 0.984587
vt 0.003806 0.989639
vt 0.005389 0.978535
vt 0.025450 0.989639
vt 0.022745 0.997935
vt 0.014628 0.992524
vt 0.016049 0.995367
vt 0.017333 0.976291
vt 0.014628 0.984309
vt 0.020039 0.981702
vt 0.020039 0.990270
vt 0.014628 0.992524
vt 0.017333 0.997935
vt 0.011922 0.976291
vt 0.009217 0.983956
vt 0.009217 0.992524
vt 0.011922 0.997935
vt 0.025450 0.987113
vt 0.023867 0.995691
vt 0.020039 0.989917
vt 0.014628 0.989917
vt 0.017333 0.997935
vt 0.009217 0.984587
vt 0.015637 0.979871
vt 0.006511 0.976291
vt 0.003806 0.983956
vt 0.025450 0.992524
vt 0.025450 0.983956
vt 0.022745 0.997935
vt 0.017333 0.976291
vt 0.014628 0.983956
vt 0.020039 0.981702
vt 0.020039 0.990270
vt 0.014628 0.992524
vt 0.017333 0.997935
vt 0.011922 0.976291
vt 0.009217 0.984587
vt 0.003806 0.989639
vt 0.007633 0.995691
vt 0.025450 0.989639
vt 0.022745 0.997935
vt 0.147625 0.667931
vt 0.123976 0.527055
vt 0.128954 0.579122
vt 0.140489 0.675185
vt 0.119633 0.580314
vt 0.110893 0.578862
vt 0.118647 0.581779
vt 0.127888 0.578941
vt 0.129230 0.693578
vt 0.154624 0.793730
vt 0.157070 0.836523
vt 0.140267 0.844236
vt 0.112905 0.803849
vt 0.130260 0.803941
vt 0.116481 0.848667
vt 0.093871 0.834774
vt 0.092613 0.796228
vt 0.115979 0.801593
vt 0.100797 0.804362
vt 0.118272 0.826638
vt 0.141744 0.824760
vt 0.145531 0.797408
vt 0.102458 0.635572
vt 0.113721 0.633187
vt 0.003806 0.989639
vt 0.005389 0.978535
vt 0.005389 0.995691
vt 0.023867 0.978535
vt 0.025450 0.987113
vt 0.023867 0.995691
vt 0.003806 0.992524
vt 0.007633 0.995691
vt 0.023867 0.978535
vt 0.003806 0.987113
vt 0.005389 0.995691
vt 0.023867 0.978535
vt 0.005389 0.978535
vt 0.003806 0.992524
vt 0.007633 0.995691
vt 0.023867 0.978535
vt 0.005389 0.978535
vt 0.139463 0.804916
vt 0.131533 0.811755
vt 0.120734 0.807885
vt 0.118261 0.795969
vt 0.122410 0.790926
vt 0.128491 0.788693
vt 0.139499 0.795428
vn -0.3849 -0.2058 -0.8997
vn 0.1536 -0.5991 -0.7858
vn -0.5388 -0.6560 -0.5286
vn 0.1365 0.3074 -0.9418
vn 0.5692 -0.8177 -0.0863
vn -0.0401 -0.9928 0.1132
vn 0.7110 -0.0663 -0.7001
vn 0.6817 0.7082 -0.1836
vn 0.9704 -0.2336 0.0607
vn -0.1917 0.7686 -0.6103
vn 0.7629 0.4421 0.4717
vn 0.5394 -0.3164 0.7803
vn -0.3912 0.9098 0.1387
vn 0.0077 -0.2870 0.9579
vn 0.1245 0.5898 0.7979
vn -0.7179 0.0892 0.6905
vn -0.7321 -0.6339 0.2493
vn -0.9507 0.1660 -0.2618
vn -0.5255 -0.1001 -0.8449
vn -0.6040 0.7357 -0.3065
vn 0.2114 0.7268 -0.6535
vn -0.1865 -0.9761 0.1114
vn -0.9693 -0.2237 0.1021
vn -0.3930 -0.7336 -0.5544
vn -0.5759 -0.2970 0.7616
vn -0.7928 0.4063 0.4543
vn -0.1283 0.5931 0.7949
vn 0.4423 0.8731 0.2052
vn -0.0012 -0.3031 0.9530
vn 0.7170 0.0819 0.6922
vn 0.7131 -0.6568 0.2450
vn 0.9516 0.1495 -0.2685
vn 0.5034 -0.6731 -0.5418
vn 0.3608 -0.2211 -0.9061
vn -0.4134 -0.8945 -0.1703
vn 0.0193 -0.1500 -0.9885
vn 0.9497 -0.3008 -0.0873
vn -0.0087 -0.7680 0.6404
vn 0.4461 0.8722 0.2004
vn -0.0228 0.1423 0.9896
vn -0.9571 0.2818 0.0680
vn 0.0152 0.7812 -0.6241
vn -0.2218 -0.9567 -0.1885
vn -0.0869 -0.4186 -0.9040
vn 0.9527 -0.1615 -0.2576
vn -0.3006 0.5059 -0.8085
vn 0.6606 0.7507 0.0047
vn -0.5346 0.7716 0.3448
vn 0.2850 -0.5177 0.8067
vn 0.1369 0.3794 0.9151
vn -0.9565 -0.2041 0.2086
vn -0.3187 0.4508 -0.8338
vn -0.0305 0.8361 0.5477
vn 0.8458 0.4905 -0.2097
vn 0.3714 -0.3900 0.8426
vn 0.5465 -0.7720 -0.3247
vn -0.7958 -0.5483 0.2569
vn -0.1555 -0.5077 -0.8474
vn -0.8285 0.4337 0.3542
vn -0.2042 -0.9725 0.1122
vn -0.3224 -0.6055 -0.7276
vn 0.8555 -0.1337 -0.5003
vn -0.5360 0.3593 -0.7639
vn 0.2273 0.9683 0.1039
vn 0.5461 -0.2278 0.8061
vn -0.8199 0.1318 0.5571
vn 0.2218 -0.9567 -0.1885
vn -0.9527 -0.1615 -0.2576
vn 0.0869 -0.4186 -0.9040
vn 0.3006 0.5059 -0.8085
vn -0.6606 0.7507 0.0047
vn 0.5346 0.7716 0.3448
vn -0.2850 -0.5177 0.8067
vn -0.1369 0.3794 0.9151
vn 0.9565 -0.2041 0.2086
vn 0.3265 0.4005 -0.8562
vn -0.8632 0.4506 -0.2276
vn 0.0305 0.8361 0.5477
vn -0.4128 -0.4084 0.8141
vn -0.2488 -0.8173 -0.5197
vn 0.8085 -0.5485 0.2131
vn 0.8285 0.4337 0.3542
vn 0.2042 -0.9725 0.1122
vn -0.8595 -0.1774 -0.4794
vn 0.3224 -0.6055 -0.7276
vn 0.5752 0.3376 -0.7451
vn -0.5711 0.7457 -0.3433
vn -0.0798 0.9023 0.4236
vn -0.5363 -0.2685 0.8002
vn 0.8445 0.0947 0.5271
vn 0.0251 0.9698 0.2426
vn 0.0155 0.2805 0.9597
vn 0.8666 0.4029 0.2945
vn 0.8614 0.4093 0.3007
vn 0.6992 -0.5227 0.4877
vn -0.1440 -0.8215 0.5517
vn -0.8730 -0.1965 0.4464
vn -0.6462 0.7284 0.2277
vn -0.7750 0.5809 0.2488
vn -0.0192 0.9969 0.0759
vn 0.1524 0.6349 -0.7574
vn -0.4984 0.4542 -0.7385
vn -0.9439 -0.3171 0.0927
vn -0.8646 0.5020 0.0224
vn -0.7042 -0.2899 -0.6482
vn -0.2505 -0.6801 -0.6890
vn -0.4791 -0.8764 0.0481
vn 0.8163 -0.5765 0.0366
vn 0.1489 -0.9438 -0.2951
vn 0.5210 -0.4871 -0.7009
vn 0.7103 0.0942 -0.6976
vn 0.8685 0.4926 0.0556
vn -0.2721 -0.8901 0.3657
vn 0.5585 -0.7531 0.3477
usemtl Snow
s 1
f 3/1/1 4/2/2 2/3/3
f 3/1/1 6/4/4 4/2/2
f 4/2/2 7/5/5 1/6/6
f 8/7/7 10/8/8 9/9/9
f 6/4/4 5/10/10 10/8/8
f 10/8/8 12/11/11 9/9/9
f 1/12/6 7/5/5 11/13/12
f 9/9/9 12/11/11 11/13/12
f 10/8/8 5/14/10 14/15/13
f 1/16/6 11/13/12 15/17/14
f 13/18/15 16/19/16 15/17/14
f 13/18/15 14/15/13 16/19/16
f 1/20/6 15/21/14 17/22/17
f 16/23/16 17/22/17 15/21/14
f 14/24/13 18/25/18 16/23/16
f 17/22/17 18/25/18 2/3/3
f 5/26/10 3/1/1 18/25/18
f 17/22/17 2/3/3 1/6/6
f 22/27/19 26/28/20 24/29/21
f 19/30/22 25/31/23 21/32/24
f 21/32/24 25/31/23 22/27/19
f 19/30/22 27/33/25 25/31/23
f 28/34/26 26/28/20 25/31/23
f 30/35/27 26/28/20 28/34/26
f 26/28/20 31/36/28 24/37/21
f 19/38/22 29/39/29 27/33/25
f 30/35/27 31/36/28 26/28/20
f 32/40/30 30/35/27 29/39/29
f 19/41/22 33/42/31 29/43/29
f 33/42/31 32/44/30 29/43/29
f 34/45/32 31/46/28 32/44/30
f 20/47/33 23/48/34 34/45/32
f 23/48/34 24/49/21 34/45/32
f 35/50/35 36/51/36 37/52/37
f 35/53/35 37/52/37 40/54/38
f 39/55/39 41/56/40 37/52/37
f 42/57/41 38/58/42 36/51/36
f 42/57/41 36/51/36 35/59/35
f 43/60/43 44/61/44 45/62/45
f 46/63/46 47/64/47 45/62/45
f 46/63/46 48/65/48 47/64/47
f 43/66/43 45/62/45 49/67/49
f 47/64/47 48/68/48 50/69/50
f 49/67/49 51/70/51 43/71/43
f 54/72/52 56/73/53 55/74/54
f 55/74/54 57/75/55 52/76/56
f 52/77/56 57/75/55 58/78/57
f 52/79/56 58/80/57 53/81/58
f 59/82/59 54/72/52 58/80/57
f 59/82/59 56/83/53 54/72/52
f 60/84/60 61/85/61 62/86/62
f 63/87/63 64/88/64 62/86/62
f 13/18/15 15/17/14 11/13/12 12/11/11
f 60/89/60 62/86/62 65/90/65
f 64/88/64 65/90/65 62/86/62
f 65/90/65 66/91/66 60/92/60
f 66/93/66 64/94/64 63/87/63
f 38/58/42 42/95/41 39/96/39
f 42/95/41 41/56/40 39/55/39
f 67/97/67 68/98/68 69/99/69
f 69/99/69 68/98/68 70/100/70
f 70/100/70 71/101/71 72/102/72
f 67/103/67 73/104/73 68/98/68
f 71/101/71 74/105/74 72/106/72
f 75/107/75 70/100/70 72/108/72
f 77/109/76 78/110/77 79/111/78
f 80/112/79 78/110/77 76/113/80
f 76/114/80 81/115/81 80/112/79
f 77/109/76 82/116/82 81/117/81
f 82/116/82 77/109/76 79/118/78
f 83/119/83 84/120/84 85/121/85
f 85/121/85 84/120/84 86/122/86
f 86/122/86 87/123/87 88/124/88
f 83/125/83 89/126/89 84/120/84
f 89/126/89 90/127/90 88/128/88
f 90/129/90 86/122/86 88/130/88
f 91/131/91 92/132/92 93/133/93
f 91/131/91 93/133/93 112/134/94
f 94/135/95 93/133/93 92/132/92
f 96/136/96 94/135/95 92/132/92
f 98/137/97 96/136/96 92/132/92
f 99/138/98 98/137/97 92/132/92
f 100/139/99 98/137/97 99/138/98
f 100/139/99 99/138/98 91/131/91
f 114/140/100 113/141/101 101/142/102
f 104/143/103 100/139/99 102/144/104
f 103/145/105 102/144/104 101/142/102
f 105/146/106 106/147/107 103/145/105
f 109/148/108 107/149/109 108/150/110
f 109/148/108 108/150/110 110/151/111
f 112/134/94 109/148/108 111/152/112
f 111/152/112 110/151/111 113/141/101
f 100/139/99 91/131/91 114/140/100
f 107/149/109 97/153/113 106/147/107
f 95/154/114 107/149/109 109/148/108
f 91/131/91 111/152/112 114/140/100
f 3/1/1 5/26/10 6/4/4
f 2/3/3 4/2/2 1/6/6
f 4/2/2 6/4/4 8/7/7
f 4/2/2 8/7/7 7/5/5
f 7/5/5 8/7/7 9/9/9
f 8/7/7 6/4/4 10/8/8
f 7/5/5 9/9/9 11/13/12
f 13/18/15 12/11/11 10/8/8 14/15/13
f 23/48/34 20/47/33 21/32/24 22/27/19
f 16/23/16 18/25/18 17/22/17
f 14/24/13 5/26/10 18/25/18
f 2/3/3 18/25/18 3/1/1
f 30/35/27 28/34/26 27/33/25 29/39/29
f 23/48/34 22/27/19 24/29/21
f 19/30/22 21/32/24 20/47/33
f 22/27/19 25/31/23 26/28/20
f 25/31/23 27/33/25 28/34/26
f 37/52/37 36/51/36 38/58/42 39/55/39
f 30/35/27 32/40/30 31/36/28
f 33/42/31 34/45/32 32/44/30
f 34/45/32 24/49/21 31/46/28
f 33/42/31 20/47/33 34/45/32
f 33/42/31 19/30/22 20/47/33
f 42/155/41 35/156/35 40/54/38 41/56/40
f 37/52/37 41/56/40 40/54/38
f 50/69/50 49/67/49 45/62/45 47/64/47
f 44/61/44 46/63/46 45/62/45
f 51/70/51 49/67/49 50/69/50 48/157/48
f 44/61/44 43/158/43 51/159/51 46/63/46
f 51/159/51 48/160/48 46/63/46
f 52/76/56 53/81/58 54/72/52 55/74/54
f 59/161/59 58/78/57 57/75/55 56/162/53
f 55/74/54 56/162/53 57/75/55
f 61/85/61 60/163/60 66/93/66 63/87/63
f 58/80/57 54/72/52 53/81/58
f 61/85/61 63/87/63 62/86/62
f 65/90/65 64/88/64 66/91/66
f 74/105/74 71/101/71 68/98/68 73/104/73
f 70/100/70 68/98/68 71/101/71
f 74/105/74 73/104/73 75/164/75 72/165/72
f 75/107/75 67/166/67 69/99/69 70/100/70
f 73/104/73 67/167/67 75/164/75
f 82/168/82 79/169/78 80/112/79 81/115/81
f 76/113/80 78/110/77 77/109/76
f 80/112/79 79/169/78 78/110/77
f 87/123/87 84/120/84 89/126/89 88/128/88
f 76/113/80 77/109/76 81/117/81
f 86/122/86 84/120/84 87/123/87
f 90/129/90 83/170/83 85/121/85 86/122/86
f 89/126/89 83/171/83 90/127/90
f 94/135/95 96/136/96 97/153/113 95/154/114
f 98/137/97 104/143/103 106/147/107 97/153/113
f 98/137/97 97/153/113 96/136/96
f 91/131/91 99/138/98 92/132/92
f 101/142/102 102/144/104 114/140/100
f 102/144/104 100/139/99 114/140/100
f 103/145/105 104/143/103 102/144/104
f 103/145/105 106/147/107 104/143/103
f 107/149/109 106/147/107 105/146/106
f 112/134/94 94/135/95 109/148/108
f 111/152/112 109/148/108 110/151/111
f 114/140/100 111/152/112 113/141/101
f 104/143/103 98/137/97 100/139/99
f 95/154/114 97/153/113 107/149/109
f 94/135/95 95/154/114 109/148/108
f 91/131/91 112/134/94 111/152/112
f 94/135/95 112/134/94 93/133/93
f 101/172/102 113/173/101 110/174/111 108/175/110 107/176/109 105/177/106 103/178/105
