# Blender v3.2.0 OBJ File: 'SnowmanBase.blend'
# www.blender.org
mtllib SnowmanArms.mtl
o SnowmanArms_Sphere.015
v 0.507376 0.742498 0.051117
v 0.495093 0.814249 0.051117
v 0.507376 0.742498 -0.051932
v 0.495093 0.814249 -0.051932
v 0.788669 0.779334 0.029465
v 0.782826 0.833899 0.029465
v 0.783297 0.777667 -0.030280
v 0.777257 0.832170 -0.030280
v 0.914476 0.805471 0.028136
v 0.910187 0.863630 0.028136
v 0.906037 0.802851 -0.034905
v 0.894077 0.847480 -0.022491
v 1.028641 0.834793 0.027865
v 1.027783 0.887887 0.027865
v 1.016680 0.831080 -0.028680
v 1.015513 0.884078 -0.028680
v 1.117640 0.862233 0.021770
v 1.099360 0.898174 0.021770
v 1.107039 0.858942 -0.022585
v 1.088759 0.894883 -0.022585
v 1.260219 0.927405 0.021770
v 1.241939 0.963346 0.021770
v 1.247506 0.923459 -0.022585
v 1.229226 0.959400 -0.022585
v 1.317412 0.951199 0.021770
v 1.299132 0.987140 0.021770
v 1.304210 0.947100 -0.022585
v 1.285930 0.983042 -0.022585
v 1.459812 1.062544 0.012567
v 1.441262 1.077119 0.012567
v 1.452087 1.060146 -0.013383
v 1.433538 1.074721 -0.013383
v 1.226674 1.106657 -0.007503
v 1.230313 1.107786 0.006688
v 1.246362 1.106766 -0.007503
v 1.250060 1.107914 0.006688
v 1.178368 0.771962 0.012506
v 1.172297 0.770077 -0.013321
v 1.206481 0.810745 0.012506
v 1.199993 0.808731 -0.013321
v 1.237787 0.748829 0.012506
v 1.231738 0.746951 -0.013321
v 1.265840 0.787593 0.012506
v 1.259379 0.785588 -0.013321
v 1.363874 0.709523 0.006233
v 1.361188 0.708689 -0.007048
v 1.370528 0.730880 0.006233
v 1.367639 0.729983 -0.007048
v 1.341695 0.866875 0.002524
v 1.340040 0.866361 -0.003339
v 1.342973 0.851979 0.002524
v 1.341387 0.851487 -0.003339
v 0.830046 0.914583 -0.007062
v 0.831558 0.915053 0.006247
v 0.856623 0.918166 -0.005327
v 0.857835 0.918542 0.004512
v 0.863283 0.855011 -0.009833
v 0.865705 0.855763 0.009018
v 0.815655 0.849170 0.012342
v 0.813177 0.848401 -0.013157
v 1.281826 0.999463 -0.021612
v 1.294302 1.003336 0.020797
v 1.227177 0.978943 -0.021612
v 1.239213 0.982678 0.020797
v 1.269402 0.792779 -0.012433
v 1.275448 0.794655 0.011618
v 1.216968 0.816605 -0.012433
v 1.223053 0.818494 0.011618
v 1.130493 0.854784 0.020430
v 1.120487 0.851678 -0.021245
v 1.040202 0.827488 -0.021245
v 1.049106 0.830252 0.020430
v 0.647554 0.738007 -0.069192
v 0.632070 0.844699 -0.069192
v 0.652094 0.739416 0.068377
v 0.636776 0.846160 0.068377
v 1.237868 0.923445 0.015747
v 1.224552 0.949625 0.015747
v 1.228726 0.920608 -0.016562
v 1.215411 0.946788 -0.016562
v 1.134707 0.933464 0.041642
v 1.113824 0.926982 -0.042457
v 1.169366 0.865319 0.041642
v 1.148484 0.858837 -0.042457
v 0.968860 0.829093 0.017644
v 0.967227 0.864396 0.017644
v 0.962387 0.827084 -0.020303
v 0.958222 0.858062 -0.016363
v -0.507376 0.742498 0.051117
v -0.495093 0.814249 0.051117
v -0.507376 0.742498 -0.051932
v -0.495093 0.814249 -0.051932
v -0.788669 0.779334 0.029465
v -0.782826 0.833899 0.029465
v -0.783297 0.777667 -0.030280
v -0.777257 0.832170 -0.030280
v -0.914476 0.805471 0.028136
v -0.910187 0.863630 0.028136
v -0.906037 0.802851 -0.034905
v -0.894077 0.847480 -0.022491
v -1.028641 0.834793 0.027865
v -1.027783 0.887887 0.027865
v -1.016680 0.831080 -0.028680
v -1.015513 0.884078 -0.028680
v -1.117640 0.862233 0.021770
v -1.099360 0.898174 0.021770
v -1.107039 0.858942 -0.022585
v -1.088759 0.894883 -0.022585
v -1.260219 0.927405 0.021770
v -1.241939 0.963346 0.021770
v -1.247506 0.923459 -0.022585
v -1.229226 0.959400 -0.022585
v -1.317412 0.951199 0.021770
v -1.299132 0.987140 0.021770
v -1.304210 0.947100 -0.022585
v -1.285930 0.983042 -0.022585
v -1.459812 1.062544 0.012567
v -1.441262 1.077119 0.012567
v -1.452087 1.060146 -0.013383
v -1.433538 1.074721 -0.013383
v -1.226674 1.106657 -0.007503
v -1.230313 1.107786 0.006688
v -1.246362 1.106766 -0.007503
v -1.250060 1.107914 0.006688
v -1.178368 0.771962 0.012506
v -1.172297 0.770077 -0.013321
v -1.206481 0.810745 0.012506
v -1.199993 0.808731 -0.013321
v -1.237787 0.748829 0.012506
v -1.231738 0.746951 -0.013321
v -1.265840 0.787593 0.012506
v -1.259379 0.785588 -0.013321
v -1.363874 0.709523 0.006233
v -1.361188 0.708689 -0.007048
v -1.370528 0.730880 0.006233
v -1.367639 0.729983 -0.007048
v -1.341695 0.866875 0.002524
v -1.340040 0.866361 -0.003339
v -1.342973 0.851979 0.002524
v -1.341387 0.851487 -0.003339
v -0.830046 0.914583 -0.007062
v -0.831558 0.915053 0.006247
v -0.856623 0.918166 -0.005327
v -0.857835 0.918542 0.004512
v -0.863283 0.855011 -0.009833
v -0.865705 0.855763 0.009018
v -0.815655 0.849170 0.012342
v -0.813177 0.848401 -0.013157
v -1.281826 0.999463 -0.021612
v -1.294302 1.003336 0.020797
v -1.227177 0.978943 -0.021612
v -1.239213 0.982678 0.020797
v -1.269402 0.792779 -0.012433
v -1.275448 0.794655 0.011618
v -1.216968 0.816605 -0.012433
v -1.223053 0.818494 0.011618
v -1.130493 0.854784 0.020430
v -1.120487 0.851678 -0.021245
v -1.040202 0.827488 -0.021245
v -1.049106 0.830252 0.020430
v -0.647554 0.738007 -0.069192
v -0.632070 0.844699 -0.069192
v -0.652094 0.739416 0.068377
v -0.636776 0.846160 0.068377
v -1.237868 0.923445 0.015747
v -1.224552 0.949625 0.015747
v -1.228726 0.920608 -0.016562
v -1.215411 0.946788 -0.016562
v -1.134707 0.933464 0.041642
v -1.113824 0.926982 -0.042457
v -1.169366 0.865319 0.041642
v -1.148484 0.858837 -0.042457
v -0.968860 0.829093 0.017644
v -0.967227 0.864396 0.017644
v -0.962387 0.827084 -0.020303
v -0.958222 0.858062 -0.016363
vt 0.212036 0.080596
vt 0.264820 0.084536
vt 0.243318 0.153270
vt 0.216552 0.150367
vt 0.161800 0.175299
vt 0.132867 0.182374
vt 0.127392 0.119965
vt 0.151917 0.113749
vt 0.136960 0.252089
vt 0.182769 0.248294
vt 0.189646 0.316806
vt 0.151473 0.320759
vt 0.108440 0.257469
vt 0.119656 0.185458
vt 0.212036 0.244555
vt 0.212036 0.315621
vt 0.146948 0.085435
vt 0.127051 0.089795
vt 0.121013 0.058237
vt 0.144287 0.050580
vt 0.114555 0.124211
vt 0.432567 0.116010
vt 0.432675 0.120181
vt 0.401540 0.118265
vt 0.401488 0.116096
vt 0.238227 0.210915
vt 0.215412 0.211882
vt 0.156046 0.055539
vt 0.140675 0.017597
vt 0.150606 0.021544
vt 0.118513 0.094157
vt 0.110963 0.066846
vt 0.156072 0.089638
vt 0.221330 0.241571
vt 0.236648 0.242821
vt 0.242985 0.273168
vt 0.217461 0.268077
vt 0.385396 0.154876
vt 0.367722 0.153741
vt 0.367706 0.140627
vt 0.388249 0.143059
vt 0.240350 0.309447
vt 0.221175 0.314371
vt 0.121453 0.013792
vt 0.338950 0.151511
vt 0.329090 0.148503
vt 0.329647 0.105605
vt 0.335612 0.107682
vt 0.358221 0.147581
vt 0.357792 0.116290
vt 0.368111 0.110222
vt 0.358461 0.157529
vt 0.393177 0.160863
vt 0.396039 0.151664
vt 0.340953 0.323543
vt 0.340954 0.337964
vt 0.332009 0.340408
vt 0.332009 0.320610
vt 0.398728 0.117228
vt 0.388540 0.110577
vt 0.388478 0.023694
vt 0.394438 0.027585
vt 0.402811 0.271821
vt 0.402678 0.282784
vt 0.347245 0.276946
vt 0.347491 0.273394
vt 0.301933 0.338133
vt 0.301933 0.318336
vt 0.381151 0.013792
vt 0.393078 0.017928
vt 0.376551 0.019558
vt 0.216908 0.345400
vt 0.212036 0.334892
vt 0.369985 0.022885
vt 0.339843 0.263863
vt 0.343453 0.264278
vt 0.343868 0.272953
vt 0.399891 0.030662
vt 0.427627 0.023442
vt 0.421349 0.085902
vt 0.411729 0.084952
vt 0.399415 0.232738
vt 0.401871 0.243420
vt 0.342520 0.260812
vt 0.306848 0.107890
vt 0.311669 0.078412
vt 0.333917 0.075300
vt 0.285867 0.184361
vt 0.267794 0.141433
vt 0.279980 0.099824
vt 0.300771 0.109288
vt 0.297154 0.182092
vt 0.339843 0.077183
vt 0.331452 0.018429
vt 0.334432 0.019249
vt 0.313587 0.230734
vt 0.316252 0.235944
vt 0.270996 0.232273
vt 0.270287 0.230952
vt 0.286075 0.069569
vt 0.305873 0.079824
vt 0.320882 0.016820
vt 0.320572 0.013792
vt 0.331090 0.015360
vt 0.307461 0.015367
vt 0.317907 0.017436
vt 0.264820 0.225917
vt 0.265945 0.224885
vt 0.269173 0.231967
vt 0.327358 0.262235
vt 0.266385 0.238050
vt 0.327237 0.199570
vt 0.325875 0.205457
vt 0.266329 0.223416
vt 0.398728 0.102374
vt 0.401559 0.103077
vt 0.399394 0.115529
vt 0.431125 0.085902
vt 0.432675 0.091215
vt 0.400795 0.100262
vt 0.431818 0.144989
vt 0.401123 0.131430
vt 0.159272 0.134103
vt 0.163739 0.156477
vt 0.166218 0.119498
vt 0.177709 0.173744
vt 0.168467 0.156763
vt 0.163321 0.134840
vt 0.411134 0.240774
vt 0.411112 0.271434
vt 0.408654 0.229422
vt 0.398728 0.022431
vt 0.427627 0.013792
vt 0.411134 0.283216
vt 0.334648 0.202989
vt 0.319422 0.230654
vt 0.336238 0.196585
vt 0.322314 0.236539
vt 0.336238 0.265089
vt 0.329444 0.156015
vt 0.295557 0.192620
vt 0.284334 0.196585
vt 0.264820 0.148694
vt 0.339843 0.158943
vt 0.129448 0.326233
vt 0.229123 0.013792
vt 0.264820 0.015547
vt 0.390123 0.314371
vt 0.390123 0.351907
vt 0.398728 0.211269
vt 0.383786 0.199231
vt 0.357826 0.194067
vt 0.339843 0.202031
vt 0.377942 0.220540
vt 0.357080 0.218685
vt 0.346359 0.225557
vt 0.385762 0.229422
vt 0.408717 0.323642
vt 0.408717 0.343439
vt 0.212036 0.080596
vt 0.216552 0.150367
vt 0.243318 0.153270
vt 0.264820 0.084536
vt 0.161800 0.175299
vt 0.151917 0.113749
vt 0.127392 0.119965
vt 0.132867 0.182374
vt 0.136960 0.252089
vt 0.151473 0.320759
vt 0.189646 0.316806
vt 0.182769 0.248294
vt 0.108440 0.257469
vt 0.119656 0.185458
vt 0.212036 0.244555
vt 0.212036 0.315621
vt 0.146948 0.085435
vt 0.144287 0.050580
vt 0.121013 0.058237
vt 0.127051 0.089795
vt 0.114555 0.124211
vt 0.432567 0.116010
vt 0.401488 0.116096
vt 0.401540 0.118265
vt 0.432675 0.120181
vt 0.215412 0.211882
vt 0.238227 0.210915
vt 0.156046 0.055539
vt 0.150606 0.021544
vt 0.140675 0.017597
vt 0.110963 0.066846
vt 0.118513 0.094157
vt 0.156072 0.089638
vt 0.221330 0.241571
vt 0.217461 0.268077
vt 0.242985 0.273168
vt 0.236648 0.242821
vt 0.385396 0.154876
vt 0.388249 0.143059
vt 0.367706 0.140627
vt 0.367722 0.153741
vt 0.221175 0.314371
vt 0.240350 0.309447
vt 0.121453 0.013792
vt 0.338950 0.151511
vt 0.335612 0.107682
vt 0.329647 0.105605
vt 0.329090 0.148503
vt 0.368111 0.110222
vt 0.357792 0.116290
vt 0.358221 0.147581
vt 0.358461 0.157529
vt 0.393177 0.160863
vt 0.396039 0.151664
vt 0.340953 0.323543
vt 0.332009 0.320610
vt 0.332009 0.340408
vt 0.340954 0.337964
vt 0.398728 0.117228
vt 0.394438 0.027585
vt 0.388478 0.023694
vt 0.388540 0.110577
vt 0.402811 0.271821
vt 0.347491 0.273394
vt 0.347245 0.276946
vt 0.402678 0.282784
vt 0.301933 0.318336
vt 0.301933 0.338133
vt 0.381151 0.013792
vt 0.376551 0.019558
vt 0.393078 0.017928
vt 0.212036 0.334892
vt 0.216908 0.345400
vt 0.369985 0.022885
vt 0.339843 0.263863
vt 0.343868 0.272953
vt 0.343453 0.264278
vt 0.399891 0.030662
vt 0.411729 0.084952
vt 0.421349 0.085902
vt 0.427627 0.023442
vt 0.399415 0.232738
vt 0.342520 0.260812
vt 0.401871 0.243420
vt 0.333917 0.075300
vt 0.311669 0.078412
vt 0.306848 0.107890
vt 0.285867 0.184361
vt 0.300771 0.109288
vt 0.279980 0.099824
vt 0.267794 0.141433
vt 0.297154 0.182092
vt 0.339843 0.077183
vt 0.334432 0.019249
vt 0.331452 0.018429
vt 0.313587 0.230734
vt 0.270287 0.230952
vt 0.270996 0.232273
vt 0.316252 0.235944
vt 0.305873 0.079824
vt 0.286075 0.069569
vt 0.320882 0.016820
vt 0.331090 0.015360
vt 0.320572 0.013792
vt 0.317907 0.017436
vt 0.307461 0.015367
vt 0.264820 0.225917
vt 0.269173 0.231967
vt 0.265945 0.224885
vt 0.266385 0.238050
vt 0.327358 0.262235
vt 0.327237 0.199570
vt 0.266329 0.223416
vt 0.325875 0.205457
vt 0.398728 0.102374
vt 0.399394 0.115529
vt 0.401559 0.103077
vt 0.431125 0.085902
vt 0.400795 0.100262
vt 0.432675 0.091215
vt 0.401123 0.131430
vt 0.431818 0.144989
vt 0.163739 0.156477
vt 0.159272 0.134103
vt 0.166218 0.119498
vt 0.163321 0.134840
vt 0.168467 0.156763
vt 0.177709 0.173744
vt 0.411134 0.240774
vt 0.411112 0.271434
vt 0.408654 0.229422
vt 0.398728 0.022431
vt 0.427627 0.013792
vt 0.411134 0.283216
vt 0.334648 0.202989
vt 0.319422 0.230654
vt 0.336238 0.196585
vt 0.322314 0.236539
vt 0.336238 0.265089
vt 0.329444 0.156015
vt 0.295557 0.192620
vt 0.284334 0.196585
vt 0.264820 0.148694
vt 0.339843 0.158943
vt 0.129448 0.326233
vt 0.229123 0.013792
vt 0.264820 0.015547
vt 0.390123 0.314371
vt 0.390123 0.351907
vt 0.398728 0.211269
vt 0.383786 0.199231
vt 0.357826 0.194067
vt 0.339843 0.202031
vt 0.377942 0.220540
vt 0.357080 0.218685
vt 0.346359 0.225557
vt 0.385762 0.229422
vt 0.408717 0.323642
vt 0.408717 0.343439
vt 0.127498 0.282568
vt 0.182723 0.283465
vt 0.182089 0.322476
vt 0.126865 0.321579
vt 0.126386 0.281611
vt 0.184212 0.282240
vt 0.183768 0.323089
vt 0.125942 0.322460
vn 0.1353 -0.6895 -0.7116
vn -0.0109 0.6975 -0.7165
vn 0.0288 0.6981 -0.7154
vn 0.2826 -0.6751 -0.6814
vn 0.0053 0.6940 0.7200
vn 0.2751 -0.6861 0.6735
vn 0.2726 -0.6674 0.6930
vn 0.0157 0.7650 0.6438
vn 0.1402 -0.6857 0.7142
vn -0.0043 0.7052 0.7090
vn -0.7082 0.4547 0.5401
vn -0.5616 -0.6195 0.5485
vn -0.7088 0.4545 -0.5395
vn -0.2065 0.7185 0.6642
vn 0.1810 -0.6824 0.7082
vn -0.0575 -0.6003 0.7977
vn -0.1944 0.6922 0.6950
vn 0.2526 -0.6007 -0.7585
vn 0.2141 0.9308 0.2961
vn 0.2450 0.7095 -0.6607
vn 0.4812 0.6621 -0.5745
vn 0.5535 0.6735 0.4900
vn 0.0022 0.6509 -0.7592
vn -0.2194 0.6759 -0.7036
vn -0.4479 0.4922 0.7464
vn -0.4675 0.5432 -0.6974
vn 0.1746 -0.6374 -0.7505
vn -0.0500 -0.6553 -0.7537
vn -0.1798 0.6865 -0.7046
vn -0.3115 0.6197 0.7203
vn 0.2718 -0.6672 0.6935
vn 0.1401 -0.7009 0.6993
vn -0.4693 0.0937 0.8781
vn 0.0433 -0.3122 -0.9490
vn 0.1069 -0.3267 0.9391
vn 0.3688 0.4922 -0.7885
vn 0.4513 0.5975 0.6628
vn 0.0099 0.5890 0.8081
vn 0.0835 0.5217 -0.8490
vn 0.0955 -0.7128 -0.6949
vn 0.3525 -0.6127 -0.7073
vn 0.4087 -0.6337 0.6567
vn 0.2816 -0.6424 -0.7127
vn -0.3097 0.6570 -0.6873
vn -0.6166 0.1918 -0.7635
vn 0.1359 0.2751 -0.9518
vn 0.0936 0.3991 0.9121
vn 0.1391 0.8380 0.5277
vn -0.0279 0.7919 -0.6100
vn 0.7441 0.3152 0.5890
vn 0.5533 0.2351 -0.7991
vn 0.3712 0.6705 -0.6424
vn 0.5048 0.7272 0.4651
vn 0.7544 -0.0440 -0.6549
vn 0.8982 0.0288 0.4386
vn -0.6834 0.5612 -0.4669
vn -0.5236 0.6248 0.5792
vn -0.8079 -0.0037 -0.5893
vn -0.6137 -0.0002 0.7896
vn -0.2351 -0.6321 0.7383
vn -0.2007 -0.6295 0.7506
vn 0.3801 0.0353 0.9243
vn -0.1097 -0.8279 -0.5500
vn -0.2750 -0.7282 -0.6277
vn -0.1145 -0.7506 0.6508
vn 0.2597 0.0445 -0.9647
vn 0.8165 0.3157 0.4833
vn 0.6953 0.2845 -0.6601
vn 0.5001 -0.5404 0.6767
vn 0.4486 -0.4977 -0.7423
vn 0.6802 -0.2893 -0.6735
vn 0.8248 -0.2500 0.5071
vn -0.2380 -0.7217 -0.6500
vn 0.4601 -0.7049 0.5399
vn 0.3240 -0.7595 -0.5641
vn 0.3268 0.7272 -0.6036
vn 0.5045 0.7410 0.4432
vn -0.2600 0.6912 -0.6743
vn -0.2468 0.6752 0.6951
vn -0.5471 0.6106 -0.5726
vn -0.4870 0.6316 0.6033
vn -0.4124 0.7798 -0.4710
vn -0.4660 0.8127 0.3499
vn -0.5640 -0.6208 -0.5445
vn 0.1638 -0.6855 -0.7094
vn -0.4401 0.5805 -0.6851
vn -0.3234 0.6099 0.7235
vn 0.2778 -0.6592 0.6987
vn -0.1353 -0.6895 -0.7116
vn -0.2826 -0.6751 -0.6814
vn -0.0288 0.6981 -0.7154
vn 0.0109 0.6975 -0.7165
vn -0.0053 0.6940 0.7200
vn -0.0157 0.7650 0.6438
vn -0.2726 -0.6674 0.6930
vn -0.2751 -0.6861 0.6735
vn -0.1402 -0.6857 0.7142
vn 0.5616 -0.6195 0.5485
vn 0.7082 0.4547 0.5401
vn 0.0043 0.7052 0.7090
vn 0.7088 0.4545 -0.5395
vn 0.2065 0.7185 0.6642
vn 0.1944 0.6922 0.6950
vn 0.0575 -0.6003 0.7977
vn -0.1810 -0.6824 0.7082
vn -0.2526 -0.6007 -0.7585
vn -0.2141 0.9308 0.2961
vn -0.5535 0.6735 0.4900
vn -0.4812 0.6621 -0.5745
vn -0.2450 0.7095 -0.6607
vn -0.0022 0.6509 -0.7592
vn 0.2194 0.6759 -0.7036
vn 0.4675 0.5432 -0.6974
vn 0.4479 0.4922 0.7464
vn 0.0500 -0.6553 -0.7537
vn -0.1746 -0.6374 -0.7505
vn 0.1798 0.6865 -0.7046
vn 0.3115 0.6197 0.7203
vn 0.4693 0.0937 0.8781
vn -0.1401 -0.7009 0.6993
vn -0.2718 -0.6672 0.6935
vn -0.0433 -0.3122 -0.9490
vn -0.1069 -0.3267 0.9391
vn -0.3688 0.4922 -0.7885
vn -0.0835 0.5217 -0.8490
vn -0.0099 0.5890 0.8081
vn -0.4513 0.5975 0.6628
vn -0.4087 -0.6337 0.6567
vn -0.3525 -0.6127 -0.7073
vn -0.0955 -0.7128 -0.6949
vn -0.2816 -0.6424 -0.7127
vn 0.3097 0.6570 -0.6873
vn 0.6166 0.1918 -0.7635
vn -0.1359 0.2751 -0.9518
vn 0.0279 0.7919 -0.6100
vn -0.1391 0.8380 0.5277
vn -0.0936 0.3991 0.9121
vn -0.7441 0.3152 0.5890
vn -0.5048 0.7272 0.4651
vn -0.3712 0.6705 -0.6424
vn -0.5533 0.2351 -0.7991
vn -0.7544 -0.0440 -0.6549
vn -0.8982 0.0288 0.4386
vn 0.6834 0.5612 -0.4669
vn 0.5236 0.6248 0.5792
vn 0.8079 -0.0037 -0.5893
vn 0.6137 -0.0002 0.7896
vn -0.3801 0.0353 0.9243
vn 0.2007 -0.6295 0.7506
vn 0.2351 -0.6321 0.7383
vn 0.1097 -0.8279 -0.5500
vn 0.2750 -0.7282 -0.6277
vn 0.1145 -0.7506 0.6508
vn -0.2597 0.0445 -0.9647
vn -0.6953 0.2845 -0.6601
vn -0.8165 0.3157 0.4833
vn -0.5001 -0.5404 0.6767
vn -0.8248 -0.2500 0.5071
vn -0.6802 -0.2893 -0.6735
vn -0.4486 -0.4977 -0.7423
vn 0.2380 -0.7217 -0.6500
vn -0.4601 -0.7049 0.5399
vn -0.3240 -0.7595 -0.5641
vn -0.3268 0.7272 -0.6036
vn -0.5045 0.7410 0.4432
vn 0.2600 0.6912 -0.6743
vn 0.2468 0.6752 0.6951
vn 0.5471 0.6106 -0.5726
vn 0.4870 0.6316 0.6033
vn 0.4124 0.7798 -0.4710
vn 0.4660 0.8127 0.3499
vn 0.5640 -0.6208 -0.5445
vn -0.1638 -0.6855 -0.7094
vn 0.4401 0.5805 -0.6851
vn 0.3234 0.6099 0.7235
vn -0.2778 -0.6592 0.6987
usemtl PaperSnowman
s 1
f 73/1/1 74/2/2 8/3/3 7/4/4
f 6/5/5 5/6/6 9/7/7 10/8/8
f 75/9/9 76/10/10 2/11/11 1/12/12
f 73/13/1 7/14/4 5/6/6 75/9/9
f 74/15/2 4/16/13 2/11/11 76/10/10
f 86/17/14 85/18/15 13/19/16 14/20/17
f 5/6/6 7/14/4 11/21/18 9/7/7
f 58/22/19 57/23/20 55/24/21 56/25/22
f 7/4/4 8/3/3 12/26/23 11/27/18
f 16/28/24 14/20/17 18/29/25 20/30/26
f 85/18/15 87/31/27 15/32/28 13/19/16
f 88/33/29 86/17/14 14/20/17 16/28/24
f 87/34/27 88/35/29 16/36/24 15/37/28
f 78/38/30 77/39/31 21/40/32 22/41/33
f 15/37/28 16/36/24 20/42/26 19/43/34
f 14/20/17 13/19/16 17/44/35 18/29/25
f 70/45/36 69/46/37 39/47/38 40/48/39
f 21/40/32 23/49/40 27/50/41 25/51/42
f 77/39/31 79/52/43 23/49/40 21/40/32
f 80/53/44 78/38/30 22/41/33 24/54/45
f 79/55/43 80/56/44 24/57/45 23/58/40
f 28/59/46 26/60/47 30/61/48 32/62/49
f 62/63/50 61/64/51 35/65/52 36/66/53
f 23/58/40 24/57/45 28/67/46 27/68/41
f 22/41/33 21/40/32 25/51/42 26/60/47
f 31/69/54 32/70/49 30/61/48 29/71/55
f 27/68/41 28/67/46 32/72/49 31/73/54
f 26/60/47 25/51/42 29/71/55 30/61/48
f 25/51/42 27/50/41 31/74/54 29/71/55
f 33/75/56 34/76/57 36/66/53 35/77/52
f 61/78/51 63/79/58 33/80/56 35/81/52
f 63/82/58 64/83/59 34/76/57 33/84/56
f 64/83/59 62/63/50 36/66/53 34/76/57
f 39/47/38 37/85/60 41/86/61 43/87/62
f 71/88/63 70/89/36 40/90/39 38/91/64
f 72/92/65 71/88/63 38/91/64 37/85/60
f 69/46/37 72/92/65 37/85/60 39/47/38
f 44/93/66 43/87/62 47/94/67 48/95/68
f 66/96/69 65/97/70 52/98/71 51/99/72
f 38/91/64 40/90/39 44/100/66 42/101/73
f 37/85/60 38/91/64 42/101/73 41/86/61
f 45/102/74 46/103/75 48/104/68 47/94/67
f 42/101/73 44/100/66 48/105/68 46/106/75
f 41/86/61 42/101/73 46/106/75 45/102/74
f 43/87/62 41/86/61 45/102/74 47/94/67
f 50/107/76 49/108/77 51/99/72 52/109/71
f 65/97/70 67/110/78 50/111/76 52/98/71
f 67/112/78 68/113/79 49/108/77 50/114/76
f 68/113/79 66/96/69 51/99/72 49/108/77
f 53/115/80 54/116/81 56/25/22 55/117/21
f 60/118/82 59/119/83 54/116/81 53/120/80
f 57/23/20 60/121/82 53/122/80 55/24/21
f 59/119/83 58/22/19 56/25/22 54/116/81
f 6/5/5 10/8/8 58/123/19 59/124/83
f 12/125/23 8/126/3 60/127/82 57/128/20
f 8/126/3 6/5/5 59/124/83 60/127/82
f 10/8/8 12/125/23 57/128/20 58/123/19
f 22/129/33 26/130/47 62/63/50 64/83/59
f 24/131/45 22/129/33 64/83/59 63/82/58
f 28/132/46 24/133/45 63/79/58 61/78/51
f 26/130/47 28/134/46 61/64/51 62/63/50
f 39/135/38 43/136/62 66/96/69 68/113/79
f 40/137/39 39/135/38 68/113/79 67/112/78
f 44/138/66 40/139/39 67/110/78 65/97/70
f 43/136/62 44/138/66 65/97/70 66/96/69
f 17/140/35 13/141/16 72/92/65 69/46/37
f 13/141/16 15/142/28 71/88/63 72/92/65
f 15/142/28 19/143/34 70/89/36 71/88/63
f 19/144/34 17/140/35 69/46/37 70/45/36
f 8/126/3 74/15/2 76/10/10 6/5/5
f 3/145/84 73/13/1 75/9/9 1/12/12
f 5/6/6 6/5/5 76/10/10 75/9/9
f 3/146/84 4/147/13 74/2/2 73/1/1
f 84/148/85 82/149/86 80/56/44 79/55/43
f 82/150/86 81/151/87 78/38/30 80/53/44
f 83/152/88 84/153/85 79/52/43 77/39/31
f 81/151/87 83/152/88 77/39/31 78/38/30
f 18/154/25 17/155/35 83/152/88 81/151/87
f 17/155/35 19/156/34 84/153/85 83/152/88
f 20/157/26 18/154/25 81/151/87 82/150/86
f 19/158/34 20/159/26 82/149/86 84/148/85
f 11/27/18 12/26/23 88/35/29 87/34/27
f 12/125/23 10/8/8 86/17/14 88/33/29
f 9/7/7 11/21/18 87/31/27 85/18/15
f 10/8/8 9/7/7 85/18/15 86/17/14
f 161/160/89 95/161/90 96/162/91 162/163/92
f 94/164/93 98/165/94 97/166/95 93/167/96
f 163/168/97 89/169/98 90/170/99 164/171/100
f 161/172/89 163/168/97 93/167/96 95/173/90
f 162/174/92 164/171/100 90/170/99 92/175/101
f 174/176/102 102/177/103 101/178/104 173/179/105
f 93/167/96 97/166/95 99/180/106 95/173/90
f 146/181/107 144/182/108 143/183/109 145/184/110
f 95/161/90 99/185/106 100/186/111 96/162/91
f 104/187/112 108/188/113 106/189/114 102/177/103
f 173/179/105 101/178/104 103/190/115 175/191/116
f 176/192/117 104/187/112 102/177/103 174/176/102
f 175/193/116 103/194/115 104/195/112 176/196/117
f 166/197/118 110/198/119 109/199/120 165/200/121
f 103/194/115 107/201/122 108/202/113 104/195/112
f 102/177/103 106/189/114 105/203/123 101/178/104
f 158/204/124 128/205/125 127/206/126 157/207/127
f 109/199/120 113/208/128 115/209/129 111/210/130
f 165/200/121 109/199/120 111/210/130 167/211/131
f 168/212/132 112/213/133 110/198/119 166/197/118
f 167/214/131 111/215/130 112/216/133 168/217/132
f 116/218/134 120/219/135 118/220/136 114/221/137
f 150/222/138 124/223/139 123/224/140 149/225/141
f 111/215/130 115/226/129 116/227/134 112/216/133
f 110/198/119 114/221/137 113/208/128 109/199/120
f 119/228/142 117/229/143 118/220/136 120/230/135
f 115/226/129 119/231/142 120/232/135 116/227/134
f 114/221/137 118/220/136 117/229/143 113/208/128
f 113/208/128 117/229/143 119/233/142 115/209/129
f 121/234/144 123/235/140 124/223/139 122/236/145
f 149/237/141 123/238/140 121/239/144 151/240/146
f 151/241/146 121/242/144 122/236/145 152/243/147
f 152/243/147 122/236/145 124/223/139 150/222/138
f 127/206/126 131/244/148 129/245/149 125/246/150
f 159/247/151 126/248/152 128/249/125 158/250/124
f 160/251/153 125/246/150 126/248/152 159/247/151
f 157/207/127 127/206/126 125/246/150 160/251/153
f 132/252/154 136/253/155 135/254/156 131/244/148
f 154/255/157 139/256/158 140/257/159 153/258/160
f 126/248/152 130/259/161 132/260/154 128/249/125
f 125/246/150 129/245/149 130/259/161 126/248/152
f 133/261/162 135/254/156 136/262/155 134/263/163
f 130/259/161 134/264/163 136/265/155 132/260/154
f 129/245/149 133/261/162 134/264/163 130/259/161
f 131/244/148 135/254/156 133/261/162 129/245/149
f 138/266/164 140/267/159 139/256/158 137/268/165
f 153/258/160 140/257/159 138/269/164 155/270/166
f 155/271/166 138/272/164 137/268/165 156/273/167
f 156/273/167 137/268/165 139/256/158 154/255/157
f 141/274/168 143/275/109 144/182/108 142/276/169
f 148/277/170 141/278/168 142/276/169 147/279/171
f 145/184/110 143/183/109 141/280/168 148/281/170
f 147/279/171 142/276/169 144/182/108 146/181/107
f 94/164/93 147/282/171 146/283/107 98/165/94
f 100/284/111 145/285/110 148/286/170 96/287/91
f 96/287/91 148/286/170 147/282/171 94/164/93
f 98/165/94 146/283/107 145/285/110 100/284/111
f 110/288/119 152/243/147 150/222/138 114/289/137
f 112/290/133 151/241/146 152/243/147 110/288/119
f 116/291/134 149/237/141 151/240/146 112/292/133
f 114/289/137 150/222/138 149/225/141 116/293/134
f 127/294/126 156/273/167 154/255/157 131/295/148
f 128/296/125 155/271/166 156/273/167 127/294/126
f 132/297/154 153/258/160 155/270/166 128/298/125
f 131/295/148 154/255/157 153/258/160 132/297/154
f 105/299/123 157/207/127 160/251/153 101/300/104
f 101/300/104 160/251/153 159/247/151 103/301/115
f 103/301/115 159/247/151 158/250/124 107/302/122
f 107/303/122 158/204/124 157/207/127 105/299/123
f 96/287/91 94/164/93 164/171/100 162/174/92
f 91/304/172 89/169/98 163/168/97 161/172/89
f 93/167/96 163/168/97 164/171/100 94/164/93
f 91/305/172 161/160/89 162/163/92 92/306/101
f 172/307/173 167/214/131 168/217/132 170/308/174
f 170/309/174 168/212/132 166/197/118 169/310/175
f 171/311/176 165/200/121 167/211/131 172/312/173
f 169/310/175 166/197/118 165/200/121 171/311/176
f 106/313/114 169/310/175 171/311/176 105/314/123
f 105/314/123 171/311/176 172/312/173 107/315/122
f 108/316/113 170/309/174 169/310/175 106/313/114
f 107/317/122 172/307/173 170/308/174 108/318/113
f 99/185/106 175/193/116 176/196/117 100/186/111
f 100/284/111 176/192/117 174/176/102 98/165/94
f 97/166/95 173/179/105 175/191/116 99/180/106
f 98/165/94 174/176/102 173/179/105 97/166/95
f 3/319/84 1/320/12 2/321/11 4/322/13
f 89/323/98 91/324/172 92/325/101 90/326/99
