# Blender 3.5.1
# www.blender.org
mtllib CliffEntrance.mtl
o Plane
v -16.447708 10.510576 -2.654130
v 13.698099 10.551662 -2.654130
v -16.447708 3.689084 -2.654130
v 13.511135 3.689084 -2.654130
v -7.562130 10.224151 -2.654130
v 4.255829 10.549591 -2.654130
v -16.447708 -10.208527 -2.654130
v 13.511135 -10.208527 -2.654130
v 4.779328 -10.208527 -2.654130
v -7.598028 -10.208527 -2.654130
v -16.447708 10.510576 -0.478930
v 13.698099 10.551662 -0.478930
v -16.447708 3.689083 -0.478930
v 13.511135 3.689083 -0.478930
v -7.562130 10.224151 -0.478930
v 4.255829 10.549591 -0.478930
v -16.447708 -10.208527 -0.478930
v 13.511135 -10.208527 -0.478930
v 4.779328 -10.208527 -0.478930
v -7.598028 -10.208527 -0.478930
v 4.804902 -4.972089 -2.654130
v 1.038727 3.220925 -2.654130
v 4.480186 7.924618 -3.158513
v 11.308623 -1.711844 -3.226865
v 3.233317 -0.184558 -2.654130
v -5.806347 4.513463 -2.654130
v -7.479859 -5.401782 -2.654130
v -11.348951 3.689084 -3.573843
v -7.521894 8.198659 -3.251077
v -5.745546 -0.095114 -2.654130
v 1.038727 3.220925 -0.478930
v 4.804902 -4.972089 -0.478930
v 8.715720 3.689083 -0.478930
v 4.480186 7.924618 -0.478930
v 3.233316 -0.184558 -0.478930
v -7.479859 -5.401783 -0.478930
v -5.806347 4.513463 -0.478930
v -7.113417 7.924618 -0.478930
v -11.348951 3.689083 -0.478930
v -5.745546 -0.095114 -0.478930
v 14.704014 -11.051497 -1.517799
v 14.704014 3.875327 -1.517799
v -17.644623 -11.051497 -1.517799
v -6.860657 -11.051497 -1.517799
v -17.644623 11.260425 -1.517799
v -17.644623 3.875327 -1.517799
v -7.988025 10.973998 -1.517799
v 4.027210 -11.051497 -1.517799
v 14.890978 11.301511 -1.517799
v 4.688521 11.299439 -1.517799
v -6.791023 -5.893967 -1.517799
v -5.269659 -1.275327 -1.517799
v -5.514537 3.935785 -1.517799
v 4.096005 -5.501509 -1.517799
v 2.763731 -1.364771 -1.517799
v 0.780736 2.643246 -1.517799
v 7.900208 4.988212 -3.059474
v 3.632054 3.482024 -3.351965
v 13.524395 -2.366587 -2.654130
v 5.377703 -0.351901 -2.724411
v 8.196774 -3.271780 -3.262401
v 9.592808 -7.850807 -3.067261
v 10.183727 10.351221 -2.654130
v 8.579941 8.424239 -3.253759
v 11.937863 7.025742 -3.088804
v -1.800427 10.592496 -2.654130
v -1.085619 8.404040 -3.049896
v -1.158357 5.803148 -3.153308
v -12.847712 8.925748 -3.309888
v -16.447708 -2.500998 -2.741887
v -13.674408 -2.440484 -3.109161
v -11.830514 -5.211742 -3.368981
v 10.854824 5.084392 -3.482517
v 12.513617 2.624479 -3.263003
v 12.809316 -4.779826 -3.126405
v 7.193724 -6.408363 -3.143755
v 9.568920 2.172666 -3.427272
v 6.194252 2.222023 -3.060352
v -9.250297 -1.241942 -3.273561
v -13.056650 6.213720 -3.594958
v 5.172390 5.801789 -3.067419
v 1.845003 6.107448 -3.179048
v -9.112091 6.324866 -3.628106
v 9.656968 10.351221 -0.478930
v 9.631235 11.101069 -1.517799
v -1.551354 11.342344 -1.517799
v -1.763036 10.592496 -0.478930
v -12.744680 10.484487 -0.478930
v -12.904739 11.234335 -1.517799
v -12.825883 10.484487 -2.654130
v 8.352704 -0.356742 -3.394399
vn -0.9925 -0.1198 0.0224
vn -0.7028 -0.7111 0.0174
vn -0.3719 -0.3370 0.8649
vn -0.3986 -0.0738 0.9142
vn -0.0000 -0.0000 1.0000
vn 0.1344 -0.1734 0.9756
vn -0.1990 -0.3042 0.9316
vn 0.0089 0.4575 0.8892
vn -0.0140 0.4620 0.8868
vn -0.0069 0.4427 0.8966
vn 0.0598 0.1179 -0.9912
vn -0.0296 0.2392 -0.9705
vn 0.0069 0.5807 -0.8141
vn 0.6944 -0.7194 0.0175
vn 0.9899 -0.1401 0.0223
vn 0.4037 -0.0789 0.9115
vn 0.3673 -0.3441 0.8641
vn 0.7355 -0.6773 0.0174
vn 0.9996 -0.0141 0.0231
vn 0.3490 -0.0042 0.9371
vn 0.2657 -0.3506 0.8980
vn -0.7385 -0.6739 0.0233
vn -0.2650 -0.3507 0.8982
vn -0.7424 0.6698 0.0166
vn -0.9996 -0.0000 0.0266
vn -0.3499 -0.0000 0.9368
vn -0.2615 0.3780 0.8881
vn -0.4656 -0.0132 -0.8849
vn -0.0084 -0.0384 -0.9992
vn -0.1085 -0.0103 -0.9940
vn -0.4445 -0.0030 -0.8958
vn 0.0066 0.9998 0.0210
vn 0.0272 0.9994 0.0204
vn 0.0143 0.4631 0.8862
vn 0.7420 0.6703 0.0142
vn 0.0016 0.9998 0.0206
vn -0.0014 0.4604 0.8877
vn 0.2562 0.3842 0.8870
vn 0.2070 -0.2720 -0.9398
vn -0.0336 -0.0964 -0.9948
vn 0.0251 0.9994 0.0227
vn -0.0226 0.9995 0.0209
vn 0.7155 -0.6979 0.0296
vn -0.5944 -0.8038 0.0246
vn -0.4079 -0.3761 -0.8320
vn 0.0109 -0.1036 -0.9946
vn 0.3062 -0.3930 -0.8671
vn -0.1227 0.0128 -0.9924
vn 0.1102 0.0256 -0.9936
vn -0.4085 -0.1985 0.8909
vn 0.5778 -0.0313 0.8156
vn 0.5029 -0.1025 -0.8583
vn 0.6526 -0.0527 -0.7559
vn 0.9768 -0.2133 0.0201
vn -0.9286 -0.3705 0.0222
vn -0.0395 -0.0813 -0.9959
vn -0.1409 -0.0615 -0.9881
vn -0.4596 -0.2460 -0.8534
vn -0.2739 -0.4131 -0.8685
vn -0.4982 -0.0697 -0.8643
vn 0.5419 0.0199 -0.8402
vn 0.3014 0.4228 -0.8546
vn 0.0042 0.5664 -0.8241
vn -0.0127 0.5695 -0.8219
vn 0.0109 0.5467 -0.8372
vn 0.0188 0.6429 -0.7657
vn -0.3065 -0.3870 -0.8696
vn -0.3201 0.4269 -0.8457
vn 0.4009 -0.3813 -0.8330
vn 0.5148 0.0135 -0.8572
vn 0.2934 -0.0091 -0.9560
vn 0.1178 -0.0228 -0.9928
vn -0.0343 -0.0241 -0.9991
vn 0.0046 0.1240 -0.9923
vn -0.0018 0.1004 -0.9949
vn 0.1494 0.0626 -0.9868
vn -0.0656 -0.0216 -0.9976
vn -0.0939 -0.0333 -0.9950
vn 0.0266 -0.0001 -0.9996
vn -0.0232 0.0107 -0.9997
vn -0.0399 -0.0286 -0.9988
vn 0.0852 0.0430 -0.9954
vn -0.0057 0.1231 -0.9924
vn -0.0866 -0.0233 -0.9960
vn 0.1050 -0.0315 -0.9940
vn -0.0007 -0.0522 -0.9986
vn 0.2768 0.0087 -0.9609
vn -0.0324 0.0087 -0.9994
vt -0.487245 1.000149
vt 1.261063 1.007111
vt -0.238785 1.000149
vt 1.516587 1.014314
vt -0.241972 1.007111
vt 1.259316 1.000149
vt -0.487245 0.640117
vt -0.238785 0.646839
vt 1.516587 0.654282
vt 1.259316 0.646839
vt 0.244548 1.000149
vt 0.776138 1.007111
vt 0.782774 1.000149
vt 0.236139 1.007111
vt -0.487245 -0.017347
vt 0.247736 -0.015973
vt -0.238785 0.001652
vt 1.262596 -0.020885
vt 1.516587 -0.003182
vt 1.259316 0.001651
vt 0.770787 -0.020885
vt 0.614798 0.026512
vt 0.782774 0.001651
vt -0.242707 -0.015973
vt 0.568848 1.326640
vt 0.244548 0.001652
vt -0.254785 1.000149
vt -0.238785 1.000149
vt 1.261063 1.218840
vt -0.241972 1.218840
vt 1.284313 1.014314
vt 1.259316 1.000149
vt -0.254785 0.640117
vt -0.238785 0.646839
vt 1.284313 0.654282
vt 1.259316 0.646839
vt 0.244548 1.000149
vt 0.776138 1.218840
vt 0.782774 1.000149
vt 0.236139 1.218840
vt 0.247736 -0.233163
vt -0.254785 -0.017347
vt -0.238785 0.001652
vt 1.284313 -0.003182
vt 1.262596 -0.241784
vt 1.259316 0.001651
vt 0.758313 0.030760
vt 0.770787 -0.241784
vt 0.782774 0.001651
vt 0.727296 1.331329
vt -0.242707 -0.233163
vt 0.244548 0.001652
vt 0.602353 0.199476
vt 0.797849 0.244750
vt 0.589038 0.494499
vt 0.623007 0.612086
vt 0.782774 0.843471
vt 1.099780 0.396104
vt 0.601086 0.352773
vt 0.694510 0.435182
vt 0.568171 0.776454
vt 0.305228 0.685111
vt 0.569660 1.153242
vt 0.227536 0.224802
vt 0.047916 0.646839
vt 0.225645 0.856083
vt 0.579607 0.956976
vt 0.299371 0.471160
vt 0.623007 0.612086
vt 0.756351 0.499451
vt 0.797849 0.244750
vt 0.760508 0.204157
vt 0.979406 0.646839
vt 0.782774 0.843471
vt 0.694510 0.435182
vt 0.752706 0.357261
vt 0.227536 0.224801
vt 0.736739 1.158187
vt 0.305228 0.685111
vt 0.760508 0.782146
vt 0.244548 0.843471
vt 0.047916 0.646839
vt 0.299371 0.471160
vt 0.738416 0.961676
vt 1.319749 -0.131335
vt 1.400450 -0.043061
vt 1.400450 0.663092
vt -0.371015 -0.057226
vt 0.304119 -0.124568
vt -0.277443 -0.124568
vt 0.647156 1.359936
vt -0.371015 1.035623
vt 1.316812 1.112976
vt -0.371015 0.648928
vt 0.795975 1.112975
vt 0.734752 -0.131334
vt 0.687361 0.001404
vt 1.400450 1.049788
vt -0.297533 1.112975
vt 0.215986 1.112975
vt 0.652768 1.170301
vt 0.657880 0.997570
vt 0.664280 0.781321
vt 0.681736 0.191465
vt 0.677759 0.325852
vt 0.672785 0.493915
vt 0.941497 0.707207
vt 0.743400 0.637227
vt 1.516587 0.367802
vt 1.259316 0.365708
vt 0.824094 0.459090
vt 0.955315 0.323685
vt 1.020207 0.111285
vt 1.077068 1.000149
vt -0.059124 1.007111
vt 0.973091 0.866323
vt 1.128992 0.801741
vt 0.491201 1.000149
vt 0.528673 1.007111
vt 0.524385 0.865728
vt 0.521008 0.744983
vt -0.021378 0.889633
vt -0.487245 0.347278
vt -0.238785 0.359469
vt -0.060042 0.362278
vt 0.025560 0.233624
vt 1.078792 0.712157
vt 1.155636 0.597413
vt 1.169224 0.253596
vt 0.908790 0.178160
vt 1.018907 0.576525
vt 0.862240 0.578729
vt 0.145345 0.417920
vt -0.031436 0.764072
vt 0.814881 0.744952
vt 0.660443 0.759112
vt 0.151796 0.769139
vt 1.052614 1.000149
vt -0.034589 1.218840
vt -0.033391 1.112975
vt 0.517072 1.112975
vt 0.492936 1.000149
vt 0.526932 1.218840
vt -0.016880 1.000149
vt 1.038427 1.218840
vt 1.045882 1.112975
vt 1.042209 1.007111
vt -0.020649 1.000149
vt 0.962712 0.459047
s 1
usemtl Material.001
f 54/104/1 48/97/2 19/47/3 32/72/4
f 38/81/5 37/79/6 31/69/7 34/74/5 16/39/8 87/142/9 15/37/10
f 29/66/11 69/122/12 5/11/13
f 44/91/14 51/101/15 36/78/16 20/50/17
f 41/86/18 42/87/19 14/35/20 18/44/21
f 43/89/22 44/90/14 20/51/17 17/41/23
f 45/92/24 46/94/25 13/33/26 11/27/27
f 3/8/28 28/65/29 71/125/30 70/124/31
f 46/94/25 43/88/22 17/42/23 13/33/26
f 47/95/32 89/146/33 88/145/34 15/38/10
f 48/96/2 41/85/18 18/45/21 19/48/3
f 49/99/35 85/140/36 84/139/37 12/30/38
f 26/62/39 29/66/11 68/121/40
f 50/100/41 86/141/42 87/143/9 16/40/8
f 53/103/43 56/106/44 31/70/7 37/80/6
f 42/87/19 49/98/35 12/31/38 14/35/20
f 16/39/8 34/74/5 33/73/5 14/36/20 12/32/38 84/138/37
f 18/46/21 14/36/20 33/73/5 32/71/4 19/49/3
f 20/52/17 36/77/16 39/82/5 13/34/26 17/43/23
f 39/82/5 38/81/5 15/37/10 88/144/34 11/28/27 13/34/26
f 9/23/45 62/113/46 8/20/47
f 80/134/48 69/122/12 29/66/11 83/137/49
f 31/69/7 35/75/50 32/71/4 33/73/5 34/74/5
f 36/77/16 40/83/51 37/79/6 38/81/5 39/82/5
f 51/101/15 27/63/52 30/67/53 52/102/54
f 52/102/54 30/67/53 26/61/39 53/103/43
f 54/104/1 32/72/4 35/76/50 55/105/55
f 55/105/55 35/76/50 31/70/7 56/106/44
f 58/108/56 60/111/57 25/60/58 22/56/59
f 25/59/58 55/105/55 56/106/44 22/55/59
f 21/53/60 54/104/1 55/105/55 25/59/58
f 40/84/51 52/102/54 53/103/43 37/80/6
f 36/78/16 51/101/15 52/102/54 40/84/51
f 4/9/61 2/4/62 49/98/35 42/87/19
f 26/61/39 22/55/59 56/106/44 53/103/43
f 6/14/63 66/119/64 86/141/42 50/100/41
f 2/5/62 63/115/65 85/140/36 49/99/35
f 9/21/45 8/18/47 41/85/18 48/96/2
f 5/12/13 90/147/66 89/146/33 47/95/32
f 3/7/28 70/123/31 7/15/67 43/88/22 46/94/25
f 1/1/68 3/7/28 46/94/25 45/92/24
f 7/16/67 10/24/69 44/90/14 43/89/22
f 8/19/47 59/109/70 4/9/61 42/87/19 41/86/18
f 10/25/69 27/63/52 51/101/15 44/91/14
f 21/53/60 9/22/45 48/97/2 54/104/1
f 59/110/70 75/129/71 24/58/72
f 82/136/73 67/120/74 23/57/75
f 67/120/74 68/121/40 29/66/11
f 4/10/61 65/117/76 2/6/62
f 61/112/77 75/129/71 62/113/46 76/130/78
f 81/135/79 57/107/80 78/132/81 58/108/56
f 65/117/76 73/127/82 57/107/80 64/116/83
f 61/112/77 91/149/84 24/58/72
f 64/116/83 23/57/75 6/13/63 63/114/65
f 23/57/75 67/120/74 66/118/64 6/13/63
f 29/66/11 5/11/13 66/118/64 67/120/74
f 26/62/39 68/121/40 22/56/59
f 64/116/83 57/107/80 81/135/79 23/57/75
f 28/65/29 83/137/49 26/62/39 30/68/53
f 3/8/28 1/3/68 80/134/48
f 28/65/29 30/68/53 79/133/85
f 70/124/31 71/125/30 7/17/67
f 27/64/52 72/126/86 79/133/85
f 7/17/67 72/126/86 10/26/69
f 63/114/65 2/6/62 65/117/76 64/116/83
f 25/60/58 60/111/57 61/112/77 21/54/60
f 24/58/72 74/128/87 59/110/70
f 60/111/57 91/149/84 61/112/77
f 73/127/82 74/128/87 77/131/88 57/107/80
f 21/54/60 76/130/78 9/23/45
f 8/20/47 62/113/46 75/129/71
f 75/129/71 59/110/70 8/20/47
f 76/130/78 21/54/60 61/112/77
f 9/23/45 76/130/78 62/113/46
f 58/108/56 78/132/81 60/111/57
f 78/132/81 91/149/84 60/111/57
f 24/58/72 77/131/88 74/128/87
f 80/134/48 28/65/29 3/8/28
f 67/120/74 82/136/73 68/121/40
f 74/128/87 73/127/82 65/117/76 4/10/61
f 23/57/75 81/135/79 58/108/56 82/136/73
f 68/121/40 82/136/73 58/108/56 22/56/59
f 69/122/12 90/148/66 5/11/13
f 79/133/85 30/68/53 27/64/52
f 79/133/85 72/126/86 71/125/30 28/65/29
f 10/26/69 72/126/86 27/64/52
f 7/17/67 71/125/30 72/126/86
f 80/134/48 1/3/68 69/122/12
f 26/62/39 83/137/49 29/66/11
f 83/137/49 28/65/29 80/134/48
f 57/107/80 77/131/88 91/149/84 78/132/81
f 84/139/37 85/140/36 50/100/41 16/40/8
f 85/140/36 63/115/65 6/14/63 50/100/41
f 86/141/42 66/119/64 5/12/13 47/95/32
f 87/143/9 86/141/42 47/95/32 15/38/10
f 89/146/33 90/147/66 1/2/68 45/93/24
f 88/145/34 89/146/33 45/93/24 11/29/27
f 90/148/66 69/122/12 1/3/68
f 24/58/72 75/129/71 61/112/77
f 59/110/70 74/128/87 4/10/61
f 24/58/72 91/149/84 77/131/88
